<?xml version="1.0" encoding="utf-8"?>
<!-- Generator: Adobe Illustrator 27.5.0, SVG Export Plug-In . SVG Version: 6.00 Build 0)  -->
<svg version="1.1" xmlns="http://www.w3.org/2000/svg" xmlns:xlink="http://www.w3.org/1999/xlink" x="0px" y="0px"
	 viewBox="0 0 800 800" style="enable-background:new 0 0 800 800;" xml:space="preserve">
<g id="BACKGROUND">
	<rect id="XMLID_4_" style="fill:#FFF6E9;" width="800" height="800"/>
</g>
<g id="OBJECT">
	<g id="XMLID_1_">
		<path id="XMLID_233_" style="fill:#414042;" d="M383.293,180.286c0.073-0.105,0.079-0.236-0.059-0.332
			c-0.147-0.102-0.304-0.184-0.46-0.269c-2.297-2.538-5.406-4.759-8.404-6.495c-0.98-0.567-1.92-1.152-2.84-1.748
			c-0.417-0.291-0.823-0.585-1.208-0.891c-2.704-2.144-5.198-4.466-7.561-6.904c7.859-8.232,14-19.604,16.055-30.184
			c0.072-0.375-0.11-0.701-0.388-0.907c-0.449-0.712-1.539-1.112-2.315-0.338c-5.955,5.933-15.325,5.871-23.567,5.563
			c-9.691-0.363-19.288-1.584-28.699-3.689c-8.139-1.82-16.395-4.324-24.794-4.897c-6.139-0.419-14.482-0.386-19.126,3.946
			c-3.055,2.85-3.003,6.807,0.289,9.323c0.451,0.732,0.975,1.452,1.494,2.161c1.513,2.065,3.248,3.974,4.54,6.167
			c1.569,2.662,1.829,5.181,2.66,7.923c-7.293,2.743-14.814,5.025-22.428,6.919c-18.875,4.696-37.591,5.604-56.903,6.657
			c-19.311-1.053-38.027-1.962-56.903-6.657c-7.613-1.894-15.134-4.176-22.428-6.919c0.832-2.742,1.091-5.261,2.66-7.923
			c1.292-2.193,3.028-4.102,4.54-6.167c0.52-0.708,1.043-1.429,1.494-2.161c3.293-2.516,3.344-6.473,0.289-9.323
			c-4.644-4.332-12.987-4.365-19.126-3.946c-8.399,0.573-16.656,3.076-24.794,4.897c-9.411,2.105-19.008,3.326-28.699,3.689
			c-8.242,0.309-17.612,0.371-23.567-5.563c-0.776-0.774-1.866-0.374-2.316,0.338c-0.278,0.206-0.461,0.532-0.388,0.907
			c2.055,10.58,8.195,21.952,16.054,30.184c-2.364,2.438-4.857,4.76-7.561,6.904c-0.385,0.305-0.791,0.6-1.207,0.891
			c-0.92,0.596-1.86,1.181-2.84,1.748c-2.999,1.736-6.108,3.957-8.404,6.495c-0.156,0.085-0.313,0.167-0.46,0.269
			c-0.137,0.096-0.132,0.227-0.059,0.332c-0.084,0.101-0.178,0.198-0.259,0.3c-0.038,0.048,0.025,0.101,0.079,0.091
			c0.467-0.084,0.933-0.191,1.397-0.306c1.836-0.027,3.909,0.815,5.579,1.265c0.099,0.026,0.203,0.06,0.305,0.091
			c7.141,4.736,18.195,4.523,26.505,3.706c5.751-0.565,11.469-1.486,17.119-2.596c5.486-1.079,10.569-2.531,16.1-2.756
			c-2.456,4.56-4.857,9.632-3.349,14.76c3.066,10.425,19.188,15.316,29.08,18.674c14.174,4.812,29.165,7.425,44.231,8.596
			c12.189,0.948,24.76,1.493,36.926-0.044c12.167,1.537,24.737,0.992,36.926,0.044c15.066-1.17,30.056-3.784,44.231-8.596
			c9.892-3.358,26.014-8.249,29.08-18.674c1.508-5.128-0.893-10.2-3.349-14.76c5.531,0.225,10.614,1.677,16.1,2.756
			c5.65,1.11,11.368,2.031,17.119,2.596c8.31,0.817,19.364,1.03,26.504-3.706c0.103-0.031,0.206-0.065,0.306-0.091
			c1.67-0.449,3.743-1.292,5.579-1.265c0.465,0.115,0.931,0.223,1.398,0.306c0.053,0.009,0.117-0.043,0.078-0.091
			C383.471,180.484,383.378,180.387,383.293,180.286z M289.44,149.118c-0.994-1.504-2.622-2.953-4.243-4.437
			c5.061,1.182,10.885,0.124,15.895-0.135c1.66-0.086,6.696-0.592,7.931,1.432c-0.499-0.107-1.035-0.155-1.564-0.136
			c-4.73,0.171-9.534,0.804-14.148,1.735c-0.304,0.061-0.239,0.501,0.074,0.489c2.441-0.09,4.886-0.138,7.329-0.042
			c1.227,0.048,2.459,0.123,3.68,0.243c1.016,0.1,3.098,0.877,3.406-0.105c-0.138,0.439-0.044,0.833,0.18,1.148
			c-0.36,0.304-0.767,0.596-1.193,0.874c-3.36-0.857-7.165-0.113-10.158,1.338c-0.156,0.075-0.05,0.301,0.12,0.256
			c2.758-0.727,5.238-0.676,7.858-0.314c-0.345,0.19-0.659,0.363-0.913,0.513c-3.529,2.081-7.337,3.8-11.186,5.346
			c-0.076,0.031-0.153,0.059-0.229,0.089C292.491,154.536,291.06,151.57,289.44,149.118z M129.72,149.118
			c-1.62,2.452-3.051,5.418-2.838,8.294c-0.076-0.03-0.153-0.059-0.229-0.089c-3.848-1.545-7.657-3.265-11.185-5.346
			c-0.253-0.149-0.568-0.323-0.913-0.513c2.619-0.362,5.1-0.413,7.857,0.314c0.17,0.044,0.276-0.181,0.12-0.256
			c-2.994-1.451-6.798-2.195-10.158-1.338c-0.426-0.278-0.833-0.57-1.193-0.874c0.223-0.316,0.317-0.71,0.18-1.148
			c0.308,0.983,2.39,0.205,3.406,0.105c1.221-0.121,2.453-0.195,3.68-0.243c2.442-0.097,4.887-0.048,7.329,0.042
			c0.313,0.012,0.377-0.428,0.074-0.489c-4.614-0.931-9.418-1.564-14.148-1.735c-0.529-0.019-1.065,0.029-1.564,0.136
			c1.235-2.023,6.271-1.518,7.931-1.432c5.009,0.259,10.833,1.317,15.894,0.135C132.342,146.165,130.714,147.614,129.72,149.118z
			 M93.42,177.686c-5.683,1.056-11.293,2.299-17.029,3.126c-5.797,0.836-11.753,1.498-17.636,1.17
			c-5.637-0.314-10.007-2.056-15.255-3.641c6.577-1.765,12.952-9.163,16.927-13.439c0.713-0.767,0.773-1.764,0-2.521
			c-4.445-4.349-7.944-9.26-10.819-14.558c-1.975-3.638-3.465-7.517-5.323-11.215c4.574,2.682,10.117,3.42,15.721,3.52
			c10.029,0.179,20.068-0.811,29.926-2.405c9.742-1.575,19.214-4.166,29.159-4.533c3.766-0.139,13.221-0.6,15.607,2.54
			c0.559,0.209,0.896,0.461,1.016,0.756c-18.207-3.373-35.329,4.649-53.459,5.222c-0.067,0.002-0.067,0.092,0,0.094
			c17.335,0.38,34.929-7.939,51.959-3.093c-0.337,0.55-0.675,1.101-1.012,1.651c-0.533,0.377-1.989,0.487-2.646,0.593
			c-2.562,0.415-5.142,0.398-7.731,0.264c-4.672-0.241-14.778-2.206-17.114,3.099c-0.902,2.049-0.229,3.956,1.116,5.63
			c0.58,2.81,1.424,5.575,2.309,8.335c0.014,0.717,0.01,1.43-0.023,2.134c-11.297-0.868-22.513,2.473-33.826,2.462
			c-0.135,0-0.132,0.18,0,0.187c11.327,0.617,22.407-2.073,33.673-0.707c-0.434,3.998-1.598,7.82-3.255,11.634
			c-9.764-1.227-19.364,2.73-29.059,3.478c-0.132,0.01-0.136,0.189,0,0.187c9.596-0.129,18.597-3.236,28.111-1.589
			c-0.229,0.479-0.467,0.959-0.71,1.439C100.589,176.506,97.096,177.003,93.42,177.686z M284.937,210.572
			c-13.345,3.965-27.301,6.124-41.298,7.064c-11.362,0.764-22.722,0.232-34.059,0.565c-11.337-0.333-22.697,0.199-34.059-0.565
			c-13.997-0.941-27.953-3.1-41.298-7.064c-11.173-3.319-34.473-9.374-30.311-23.489c1.781-6.039,5.536-11.196,6.636-17.468
			c0.317-1.809,0.446-3.638,0.438-5.469c0.698,2.36,1.308,4.739,1.681,7.162c0.037,0.241,0.492,0.235,0.535,0
			c1.124-6.157-0.959-12.149-2.753-18.149c1.054,0.734,2.117,1.37,3.021,1.891c14.469,8.331,32.337,13.072,49.003,16.261
			c15.182,2.906,31.508,4.902,47.108,3.501c15.6,1.401,31.926-0.596,47.108-3.501c16.665-3.189,34.534-7.931,49.002-16.261
			c0.904-0.521,1.967-1.157,3.021-1.891c-1.794,6-3.878,11.992-2.753,18.149c0.043,0.235,0.498,0.241,0.535,0
			c0.373-2.423,0.983-4.802,1.681-7.162c-0.008,1.831,0.121,3.66,0.438,5.469c1.1,6.273,4.855,11.43,6.636,17.468
			C319.41,201.197,296.11,207.253,284.937,210.572z M342.77,180.811c-5.736-0.827-11.346-2.07-17.029-3.126
			c-3.676-0.683-7.169-1.18-10.628-0.183c-0.243-0.48-0.48-0.96-0.71-1.439c9.514-1.646,18.515,1.46,28.111,1.589
			c0.136,0.001,0.132-0.177,0-0.187c-9.695-0.748-19.294-4.705-29.059-3.478c-1.657-3.814-2.821-7.637-3.255-11.634
			c11.267-1.366,22.346,1.325,33.673,0.707c0.132-0.007,0.135-0.187,0-0.187c-11.313,0.01-22.529-3.331-33.826-2.462
			c-0.034-0.705-0.037-1.417-0.023-2.134c0.885-2.761,1.729-5.526,2.31-8.335c1.346-1.674,2.018-3.581,1.116-5.63
			c-2.335-5.305-12.441-3.34-17.114-3.099c-2.59,0.134-5.17,0.15-7.732-0.264c-0.657-0.106-2.113-0.216-2.646-0.593
			c-0.337-0.55-0.675-1.101-1.012-1.651c17.03-4.846,34.625,3.474,51.96,3.093c0.067-0.001,0.067-0.091,0-0.094
			c-18.13-0.572-35.251-8.595-53.458-5.222c0.12-0.295,0.456-0.547,1.016-0.756c2.386-3.139,11.841-2.679,15.607-2.54
			c9.946,0.367,19.417,2.958,29.159,4.533c9.859,1.594,19.897,2.584,29.926,2.405c5.603-0.1,11.147-0.838,15.721-3.52
			c-1.857,3.699-3.348,7.578-5.322,11.215c-2.876,5.298-6.374,10.209-10.819,14.558c-0.774,0.757-0.713,1.754,0,2.521
			c3.975,4.276,10.351,11.675,16.927,13.439c-5.248,1.585-9.618,3.327-15.255,3.641C354.522,182.309,348.566,181.648,342.77,180.811
			z"/>
		<path id="XMLID_150_" style="fill:#414042;" d="M766.483,199.748c1.108-10.544-6.215-20.953-14.754-26.985
			c3.538-4,8.697-6.931,14.172-7.293c1.198-0.079,1.813-1.397,0.976-2.277c-6.473-6.805-15.694-9.708-25.106-10.105
			c-9.377-0.396-20.296,1.381-29.313,4.9c1.136-3.679,0.858-7.489-0.651-11.137c-5.118-12.369-20.862-13.999-32.819-13.698
			c-15.36,0.386-30.444,3.616-45.421,6.666c-7.725,1.573-15.464,3.122-23.279,4.215c-4.83,0.675-9.869,0.807-14.822,1.223
			c-4.954-0.416-9.992-0.548-14.822-1.223c-7.817-1.092-15.555-2.642-23.279-4.215c-14.977-3.05-30.061-6.28-45.422-6.666
			c-11.957-0.301-27.701,1.329-32.819,13.698c-1.51,3.648-1.787,7.458-0.65,11.137c-9.017-3.519-19.937-5.295-29.314-4.9
			c-9.411,0.397-18.632,3.3-25.105,10.105c-0.836,0.879-0.223,2.198,0.976,2.277c5.475,0.362,10.634,3.293,14.172,7.293
			c-8.539,6.033-15.861,16.441-14.754,26.985c-0.199,0.377-0.381,0.77-0.524,1.193c-0.291,0.86,0.993,1.628,1.616,0.909
			c5.456-6.291,15.943-5.665,23.603-4.389c8.372,1.395,16.268,4.618,23.9,8.117c6.49,2.976,12.863,6.193,19.514,8.833
			c6.24,2.477,13.561,5.369,20.449,4.296c6.453-1.005,11.133-7.079,9.719-12.34c0.018-1.356-0.342-2.789-0.576-4.067
			c-0.751-4.107-1.498-7.587-0.881-11.637c6.841,0.977,13.634,2.292,20.4,3.648c9.268,1.857,18.539,3.775,27.896,5.174
			c8.188,1.225,17.634,2.71,25.901,1.04c8.267,1.67,17.713,0.185,25.901-1.04c9.357-1.399,18.628-3.317,27.896-5.174
			c6.767-1.356,13.56-2.671,20.4-3.648c0.617,4.05-0.13,7.53-0.881,11.637c-0.233,1.278-0.594,2.71-0.575,4.067
			c-1.414,5.262,3.266,11.335,9.719,12.34c6.889,1.073,14.208-1.819,20.448-4.296c6.65-2.64,13.023-5.857,19.515-8.833
			c7.633-3.499,15.527-6.722,23.9-8.117c7.659-1.277,18.146-1.902,23.603,4.389c0.623,0.718,1.908-0.049,1.616-0.909
			C766.864,200.518,766.684,200.125,766.483,199.748z M511.27,215.522c-7.449,0.58-15.853-3.31-22.479-6.165
			c-12.701-5.472-24.953-12.428-38.846-14.71c-5.848-0.96-17.428-2.062-23.153,2.347c0.952-3.621,1.979-7.049,4.03-10.543
			c2.885-4.916,6.757-8.877,11.674-11.926c0.707-0.439,1.162-1.504,0.607-2.24c-3.867-5.129-8.73-7.864-14.745-9.011
			c6.703-4.73,14.814-6.933,23.164-6.89c7.517,0.039,14.4,2.152,21.45,3.828c1.095,0.415,2.204,0.799,3.283,1.224
			c1.617,0.637,3.243,1.368,4.885,2.061c0.306,0.499,0.619,0.996,0.936,1.492c-0.06,0.861-0.125,1.724-0.196,2.587
			c-8.571-4.414-21.219-7.486-30.512-5.696c-0.076,0.015-0.077,0.137,0,0.15c5.068,0.889,10.171,0.888,15.185,2.263
			c5.415,1.485,10.103,4.095,14.982,6.673c-0.105,0.848-0.232,1.692-0.381,2.533c-2.834-2.009-6.864-2.817-10.095-3.717
			c-5.102-1.421-10.725-2.648-16.062-2.622c-0.111,0.001-0.13,0.154-0.026,0.184c4.632,1.331,9.477,1.793,14.103,3.221
			c2.936,0.906,5.658,2.006,8.222,3.637c1.203,0.766,2.14,1.435,3.297,1.927c-0.001,0.004-0.002,0.008-0.003,0.012
			c-0.176,0.688-0.386,1.363-0.61,2.033c-2.385-1.365-5.09-2.096-7.71-3.033c-3.525-1.26-7.023-2.161-10.764-2.512
			c-0.203-0.019-0.235,0.29-0.047,0.337c3.134,0.778,6.296,1.59,9.307,2.747c3.109,1.195,5.548,3.192,8.396,4.717
			c-0.652,1.7-1.349,3.385-1.911,5.12c-1.175,3.624-1.685,7.403,0.126,10.558c1.117,3.417,3.997,6.642,7.192,8.251
			c5.996,4.907,16.249,0.004,23.119-1.294c3.152-0.596,7.539-0.607,10.031,1.848C522.698,209.814,516.472,215.117,511.27,215.522z
			 M517.819,197.338c0.194,1.384,0.618,2.756,1.095,4.124c-0.159-0.104-0.313-0.21-0.482-0.31
			c-9.731-5.746-22.541,5.397-31.781,2.002c-0.429-0.397-0.868-0.784-1.314-1.166c5.698,0.869,12.722-2.19,17.156-4.431
			c0.017-0.009,0.005-0.033-0.013-0.029c-3.892,0.99-7.763,2.175-11.811,2.394c-3.125,0.169-5.72-0.632-8.54-1.335
			c-3.325-11.017,24.175-9.519,30.021-9.001c2.062,0.183,4.117,0.417,6.169,0.678C517.495,192.514,517.477,194.89,517.819,197.338z
			 M633.506,194.214c-6.65,1.195-13.339,2.061-20.085,2.546c-5.955,0.428-12.035-0.079-17.955,0.407
			c-5.921-0.486-12,0.02-17.955-0.407c-6.746-0.485-13.435-1.351-20.085-2.546c-11.83-2.127-23.558-4.809-35.468-6.503
			c-10.518-1.497-22.254-3.082-32.67-0.253c-3.638,0.988-8.124,3.724-9.521,7.06c-0.012-0.039-0.023-0.078-0.035-0.116
			c-0.736-5.225,1.644-9.727,3.268-14.972c0.968-3.127,1.461-6.235,1.314-9.341c0.064-0.277,0.052-0.566-0.055-0.837
			c-0.027-0.324-0.063-0.649-0.104-0.973c2.431,4.031,4.207,8.197,2.228,13.137c-0.241,0.601,0.707,0.917,1.03,0.42
			c7.189-11.031-9.999-19.806-6.248-31.025c5.067-15.158,26.265-14.253,39.253-13.139c14.947,1.281,29.557,4.783,44.248,7.573
			c6.664,1.266,13.367,2.431,20.122,3.139c2.017,0.212,4.109,0.443,6.226,0.604c1.465,0.155,2.955,0.208,4.452,0.196
			c1.496,0.012,2.986-0.042,4.452-0.196c2.115-0.16,4.208-0.392,6.226-0.604c6.755-0.708,13.458-1.874,20.122-3.139
			c14.691-2.79,29.3-6.292,44.247-7.573c12.989-1.113,34.185-2.019,39.254,13.139c3.751,11.219-13.437,19.994-6.249,31.025
			c0.324,0.497,1.271,0.181,1.031-0.42c-1.978-4.94-0.203-9.106,2.229-13.137c-0.043,0.324-0.077,0.649-0.104,0.973
			c-0.107,0.271-0.119,0.56-0.056,0.837c-0.146,3.106,0.347,6.213,1.315,9.341c1.624,5.245,4.003,9.747,3.268,14.972
			c-0.012,0.039-0.024,0.078-0.036,0.116c-1.397-3.336-5.883-6.071-9.521-7.06c-10.415-2.829-22.151-1.244-32.669,0.253
			C657.063,189.405,645.335,192.087,633.506,194.214z M678.78,189.585c5.847-0.518,33.347-2.015,30.021,9.001
			c-2.819,0.703-5.414,1.504-8.54,1.335c-4.048-0.219-7.919-1.404-11.81-2.394c-0.018-0.004-0.029,0.02-0.013,0.029
			c4.435,2.241,11.459,5.3,17.156,4.431c-0.444,0.382-0.885,0.769-1.313,1.166c-9.241,3.395-22.05-7.748-31.782-2.002
			c-0.169,0.1-0.323,0.206-0.481,0.31c0.476-1.368,0.9-2.74,1.094-4.124c0.343-2.448,0.324-4.824-0.501-7.074
			C674.662,190.003,676.718,189.768,678.78,189.585z M740.986,194.648c-13.892,2.282-26.146,9.238-38.847,14.71
			c-6.626,2.855-15.028,6.744-22.477,6.165c-5.203-0.405-11.429-5.708-6.45-10.611c2.492-2.455,6.879-2.443,10.03-1.848
			c6.87,1.298,17.124,6.201,23.119,1.294c3.195-1.609,6.076-4.834,7.193-8.251c1.81-3.154,1.3-6.934,0.125-10.558
			c-0.563-1.735-1.259-3.42-1.911-5.12c2.849-1.524,5.287-3.522,8.397-4.717c3.01-1.157,6.173-1.969,9.307-2.747
			c0.188-0.047,0.155-0.356-0.048-0.337c-3.739,0.351-7.237,1.252-10.763,2.512c-2.621,0.937-5.326,1.667-7.71,3.033
			c-0.225-0.67-0.435-1.345-0.611-2.033c-0.001-0.004-0.002-0.008-0.003-0.012c1.157-0.493,2.094-1.162,3.297-1.927
			c2.563-1.631,5.285-2.731,8.222-3.637c4.627-1.428,9.471-1.89,14.103-3.221c0.104-0.03,0.085-0.183-0.025-0.184
			c-5.338-0.026-10.96,1.201-16.063,2.622c-3.229,0.899-7.261,1.708-10.094,3.717c-0.15-0.84-0.275-1.685-0.382-2.533
			c4.88-2.578,9.567-5.188,14.982-6.673c5.014-1.375,10.115-1.374,15.184-2.263c0.078-0.014,0.076-0.136,0-0.15
			c-9.292-1.791-21.939,1.282-30.512,5.696c-0.071-0.863-0.135-1.726-0.195-2.587c0.316-0.496,0.631-0.993,0.937-1.492
			c1.641-0.693,3.267-1.424,4.884-2.061c1.079-0.424,2.188-0.809,3.283-1.224c7.051-1.675,13.935-3.789,21.451-3.828
			c8.349-0.043,16.46,2.16,23.163,6.89c-6.015,1.147-10.878,3.882-14.744,9.011c-0.555,0.736-0.101,1.801,0.607,2.24
			c4.917,3.049,8.788,7.01,11.673,11.926c2.052,3.495,3.078,6.923,4.03,10.543C758.414,192.586,746.834,193.688,740.986,194.648z"/>
		<path id="XMLID_136_" style="fill:#414042;" d="M386.287,397.085c-8.057-20.42-30.954-20.856-46.948-14.923
			c0.063-2.24-0.331-4.449-1.569-6.573c-2.949-5.06-8.61-6.085-13.375-6.564c-5.758-0.58-12.337-0.713-18.157,1.049
			c0.553-1.926,0.744-4.01,0.351-6.354c-2.212-13.201-16.642-16.3-25.772-18.666c-12.317-3.192-24.936-4.471-37.521-4.769
			c-6.53-0.154-13.068-0.066-19.596,0.19c-4.478,0.176-9.46-0.074-14.12,0.605c-4.66-0.68-9.642-0.43-14.12-0.605
			c-6.528-0.256-13.065-0.345-19.596-0.19c-12.586,0.298-25.205,1.577-37.521,4.769c-9.129,2.366-23.56,5.465-25.773,18.666
			c-0.393,2.344-0.202,4.428,0.351,6.354c-5.82-1.763-12.398-1.629-18.156-1.049c-4.765,0.479-10.426,1.504-13.374,6.564
			c-1.238,2.124-1.632,4.333-1.569,6.573c-15.994-5.933-38.891-5.497-46.948,14.923c-0.46,1.165,0.296,2.623,1.451,2.247
			c5.637-1.837,11.311-1.136,16.631,1.267c-6.56,4.922-9.468,17.165-11.504,25.085c-0.01,0.038-0.01,0.073-0.01,0.108
			c-0.015,0.037-0.033,0.071-0.048,0.108c-0.233,0.564,0.416,1.276,0.781,0.717c4.696-7.196,13.11-8.292,20.246-8.522
			c7.306-0.237,14.518,0.978,21.626,2.934c6.073,1.671,12.116,3.821,18.369,4.309c4.396,0.342,10.451,0.232,14.054-3.355
			c2.199-2.189,2.933-5.883,0.657-8.402c-0.006-0.007-0.013-0.013-0.019-0.02c5.893,1.775,11.731,3.91,17.637,5.469
			c6.817,1.8,18.225,5.583,24.279-0.413c2.411-2.388,2.959-6.048,1.742-9.217c-0.035-1.457-0.241-2.899-0.522-4.42
			c-0.646-3.485-0.499-5.998-0.11-9.234c16.975-2.664,34.438-2.102,51.447-3.114c17.009,1.012,34.472,0.45,51.447,3.114
			c0.388,3.236,0.536,5.749-0.11,9.234c-0.282,1.521-0.487,2.963-0.522,4.42c-1.217,3.169-0.669,6.829,1.742,9.217
			c6.055,5.996,17.462,2.213,24.279,0.413c5.906-1.559,11.744-3.693,17.637-5.469c-0.006,0.007-0.013,0.013-0.02,0.02
			c-2.276,2.52-1.542,6.213,0.657,8.402c3.603,3.588,9.658,3.697,14.054,3.355c6.253-0.487,12.296-2.638,18.369-4.309
			c7.108-1.956,14.321-3.171,21.626-2.934c7.136,0.23,15.55,1.326,20.246,8.522c0.365,0.56,1.014-0.152,0.781-0.717
			c-0.015-0.037-0.033-0.071-0.048-0.108c0-0.035,0-0.07-0.01-0.108c-2.036-7.92-4.944-20.163-11.504-25.085
			c5.32-2.403,10.995-3.104,16.631-1.267C385.99,399.708,386.747,398.25,386.287,397.085z M66.741,414.765
			c-7.373-0.495-18.359-0.028-24.407,6.517c1.408-2.755,2.861-5.471,4.257-8.244c2.083-4.14,3.992-9.805,8.455-10.745
			c1.304-0.274,1.377-2.514,0.354-3.232c-5.815-4.083-12.255-4.986-18.664-3.548c3.992-6.444,10.482-10.362,17.047-11.791
			c9.038-1.967,17.598,1.147,26.496,2.139c0.087,0.424,0.183,0.848,0.287,1.271c-2.779-1.249-6.12-1.494-8.863-1.784
			c-4.928-0.522-10.077-0.024-14.871,1.443c-0.253,0.077-0.205,0.581,0.063,0.551c4.495-0.512,8.832-0.69,13.328-0.085
			c3.63,0.489,7.525,2.547,11.195,2.978c0.245,0.835,0.492,1.665,0.726,2.487c-5.483-2.173-11.819-2.432-17.399-2.263
			c-0.102,0.003-0.1,0.18,0,0.187c6.327,0.482,11.995,2.668,18.005,4.383c0.044,0.189,0.094,0.379,0.134,0.567
			c1.065,4.909,0.682,9.161,0.047,14.087c-0.174,1.347-0.335,2.553-0.364,3.725c-0.471,1.632-0.421,3.354,0.226,4.812
			C77.484,416.65,72.162,415.129,66.741,414.765z M88.448,418.446c-3.168-0.26-4.054-4.689-1.328-6.621
			c1.274-0.903,3.139-1.149,4.557-1.326c2.297-0.287,4.645-0.302,6.951-0.184c3.25,0.165,6.451,0.689,9.625,1.41
			c-0.734,0.098-1.451,0.237-2.123,0.386c-2.919,0.643-5.792,1.59-8.585,2.782C94.736,416.094,91.505,418.696,88.448,418.446z
			 M110.4,420.897c-0.485,0.159-0.97,0.317-1.455,0.477c-1.801,0.566-3.684,0.752-5.54,0.798c-3.569,0.089-7.096-0.429-10.605-1.217
			c3.338-1.226,6.683-3.504,9.721-4.5c2.354-0.772,6.831-2.831,9.191-1.387C113.205,418.43,112.767,420.373,110.4,420.897z
			 M118.277,411.303c-9.295-2.952-21.857-7.409-31.32-3.063c-0.356,0.164-0.687,0.358-1.005,0.566
			c0.099-0.457,0.191-0.919,0.271-1.388c0.455-2.664,0.455-5.412,0.188-8.102c-0.587-5.911-4.167-12.255-3.149-18.252
			c1.394-8.211,10.582-8.178,16.137-8.298c5.165-0.112,10.179,1.005,15.283,1.414c0.258,0.463,0.528,0.92,0.81,1.374
			c-1.04-0.275-2.128-0.394-3.105-0.488c-4.863-0.469-9.858-0.054-14.714,0.362c-0.24,0.021-0.229,0.401,0,0.436
			c4.078,0.619,8.159,0.918,12.252,1.307c2.806,0.267,5.399,1.695,8.071,2.144c0.523,0.768,1.04,1.542,1.532,2.328
			c-3.3-1.464-7.329-1.962-10.43-1.445c-0.08,0.013-0.069,0.158,0,0.18c2.179,0.714,4.424,1.079,6.606,1.78
			c1.819,0.585,3.559,1.561,5.356,2.207c0.095,0.192,0.185,0.387,0.274,0.583c1.119,4.55,1.318,9.413,1.313,14.349
			c-0.003,2.793-0.367,6.098,0.162,8.92c-0.063,0.483-0.092,0.984-0.071,1.511c0.051,1.263,0.375,2.387,0.895,3.313
			C121.85,412.457,120.066,411.87,118.277,411.303z M155.935,414.928c-0.79,1.578-2.46,2.276-3.845,2.734
			c-5.784,1.914-12.972-0.103-18.653-1.624c-1.039-0.278-2.071-0.581-3.104-0.888c1.866-0.794,3.525-2.307,5.228-3.464
			c2.614-1.777,5.431-3.112,8.381-3.85c2.54-0.635,5.45-1.142,8.009-0.393C154.414,408.166,157.831,411.142,155.935,414.928z
			 M155.438,405.177c-1.989-1.343-4.392-1.793-6.699-1.759c-4.689,0.067-9.444,1.694-13.59,4.253
			c-1.077,0.664-2.272,1.962-3.409,2.405c-1.944,1.896-3.407,0.616-4.387-3.836c0.599-0.489,1.198-0.978,1.796-1.466
			c2.567-1.733,5.641-2.763,8.446-3.807c5.852-2.178,11.816-3.693,17.847-4.769C154.52,398.738,154.804,402.014,155.438,405.177z
			 M209.58,389.378c-13.925-0.046-27.95,0.222-41.831,1.408c-13.048,1.116-26.639,3.292-38.691,9.674
			c-1.179,0.625-2.373,1.418-3.401,2.402c-0.027-3.742,0.067-7.501-0.539-11.208c-0.392-2.398-1.032-4.726-1.901-6.912
			c-1.146-4.142-3.958-7.658-5.816-11.525c0.067-0.618-0.184-1.318-0.712-1.643c-0.704-1.823-1.134-3.747-1.031-5.869
			c0.405-8.311,8.129-11.881,13.754-13.9c5.457-1.958,11.037-3.455,16.654-4.598c11.643-2.369,23.479-3.138,35.277-3.195
			c5.753-0.028,11.503,0.145,17.253,0.331c3.564,0.115,7.32,0.607,10.983,0.518c3.663,0.09,7.419-0.402,10.983-0.518
			c5.75-0.186,11.5-0.358,17.253-0.331c11.798,0.057,23.634,0.826,35.277,3.195c5.617,1.143,11.197,2.639,16.654,4.598
			c5.625,2.02,13.349,5.589,13.754,13.9c0.103,2.122-0.327,4.046-1.031,5.869c-0.529,0.325-0.78,1.025-0.712,1.643
			c-1.858,3.867-4.67,7.384-5.816,11.525c-0.869,2.186-1.509,4.514-1.901,6.912c-0.606,3.706-0.511,7.465-0.538,11.208
			c-1.029-0.984-2.222-1.777-3.401-2.402c-12.052-6.383-25.643-8.559-38.691-9.674C237.53,389.6,223.505,389.332,209.58,389.378z
			 M285.723,416.038c-5.682,1.522-12.869,3.538-18.653,1.624c-1.385-0.458-3.056-1.156-3.845-2.734
			c-1.896-3.786,1.521-6.762,3.984-7.483c2.559-0.749,5.47-0.242,8.009,0.393c2.95,0.737,5.767,2.072,8.381,3.85
			c1.703,1.157,3.362,2.67,5.228,3.464C287.795,415.457,286.762,415.76,285.723,416.038z M287.42,410.076
			c-1.137-0.443-2.332-1.741-3.409-2.405c-4.146-2.559-8.901-4.185-13.59-4.253c-2.307-0.034-4.71,0.416-6.699,1.759
			c0.633-3.163,0.917-6.439-0.005-8.979c6.032,1.076,11.995,2.591,17.847,4.769c2.805,1.044,5.879,2.074,8.446,3.807
			c0.599,0.488,1.198,0.977,1.796,1.466C290.827,410.692,289.365,411.972,287.42,410.076z M300.883,411.303
			c-1.788,0.567-3.573,1.154-5.358,1.738c0.52-0.927,0.844-2.051,0.895-3.313c0.022-0.526-0.008-1.027-0.071-1.511
			c0.529-2.822,0.165-6.127,0.162-8.92c-0.005-4.936,0.194-9.798,1.314-14.349c0.089-0.195,0.179-0.39,0.274-0.583
			c1.797-0.646,3.538-1.622,5.357-2.207c2.182-0.701,4.428-1.065,6.606-1.78c0.069-0.022,0.081-0.167,0-0.18
			c-3.102-0.517-7.13-0.019-10.43,1.445c0.492-0.787,1.009-1.56,1.532-2.328c2.672-0.449,5.266-1.877,8.071-2.144
			c4.093-0.389,8.174-0.688,12.252-1.307c0.229-0.035,0.24-0.415,0-0.436c-4.855-0.416-9.851-0.831-14.714-0.362
			c-0.978,0.094-2.065,0.212-3.105,0.488c0.282-0.454,0.552-0.911,0.81-1.374c5.104-0.408,10.118-1.525,15.283-1.414
			c5.554,0.121,14.743,0.087,16.137,8.298c1.018,5.997-2.562,12.34-3.149,18.252c-0.267,2.689-0.267,5.438,0.188,8.102
			c0.08,0.469,0.173,0.931,0.272,1.388c-0.318-0.208-0.649-0.402-1.005-0.566C322.74,403.894,310.178,408.351,300.883,411.303z
			 M315.754,422.172c-1.856-0.046-3.739-0.232-5.54-0.798c-0.485-0.159-0.97-0.317-1.455-0.477
			c-2.367-0.525-2.804-2.468-1.312-5.829c2.359-1.444,6.837,0.615,9.191,1.387c3.038,0.996,6.383,3.274,9.721,4.5
			C322.85,421.743,319.324,422.261,315.754,422.172z M330.712,418.446c-3.057,0.25-6.288-2.352-9.096-3.553
			c-2.793-1.192-5.667-2.14-8.585-2.782c-0.672-0.148-1.39-0.288-2.123-0.386c3.173-0.722,6.374-1.245,9.625-1.41
			c2.306-0.118,4.653-0.103,6.951,0.184c1.418,0.177,3.283,0.423,4.557,1.326C334.766,413.757,333.88,418.186,330.712,418.446z
			 M363.76,399.06c-1.022,0.718-0.95,2.957,0.354,3.232c4.463,0.94,6.371,6.605,8.455,10.745c1.396,2.773,2.849,5.489,4.257,8.244
			c-6.047-6.545-17.034-7.012-24.407-6.517c-5.421,0.364-10.744,1.886-16.054,3.457c0.647-1.458,0.697-3.18,0.226-4.812
			c-0.029-1.172-0.19-2.378-0.363-3.725c-0.636-4.926-1.018-9.178,0.046-14.087c0.04-0.188,0.09-0.378,0.134-0.567
			c6.01-1.716,11.678-3.901,18.005-4.383c0.1-0.007,0.102-0.184,0-0.187c-5.58-0.168-11.916,0.09-17.399,2.263
			c0.235-0.823,0.481-1.653,0.727-2.487c3.67-0.432,7.565-2.49,11.195-2.978c4.496-0.605,8.833-0.428,13.328,0.085
			c0.267,0.03,0.315-0.474,0.063-0.551c-4.794-1.467-9.944-1.965-14.871-1.443c-2.743,0.29-6.084,0.535-8.863,1.784
			c0.103-0.424,0.199-0.848,0.287-1.271c8.898-0.992,17.458-4.106,26.496-2.139c6.565,1.429,13.055,5.347,17.047,11.791
			C376.015,394.074,369.575,394.977,363.76,399.06z"/>
		<path id="XMLID_130_" style="fill:#414042;" d="M763.33,407.69c-4.817-14.348-13.369-27.155-22.4-38.21
			c6.544-4.205,13.457-7.16,20.797-8.839c1.558-0.356,1.482-2.773,0.404-3.68c-12.509-10.509-27.936-14.409-43.075-13.718
			c-8.157,0.372-16.218,2.145-24.129,4.473c-8.154,2.4-17.649,4.804-24.986,9.779c-0.04,0.027-0.06,0.062-0.094,0.092
			c-0.871-0.526-1.714-1.003-2.488-1.415c-6.706-3.569-13.948-5.312-21.193-6.477c-9.604-1.544-19.298-2.46-28.983-2.813
			c-4.88-0.177-9.765-0.172-14.644-0.034c-2.3,0.065-4.692,0.067-7.071,0.229c-2.379-0.162-4.772-0.164-7.072-0.229
			c-4.88-0.138-9.765-0.143-14.644,0.034c-9.687,0.353-19.38,1.268-28.984,2.813c-7.244,1.165-14.487,2.908-21.192,6.477
			c-0.775,0.413-1.618,0.89-2.488,1.415c-0.033-0.03-0.055-0.065-0.095-0.092c-7.336-4.975-16.831-7.379-24.986-9.779
			c-7.91-2.328-15.971-4.101-24.129-4.473c-15.139-0.691-30.566,3.208-43.074,13.718c-1.079,0.906-1.154,3.323,0.403,3.68
			c7.34,1.679,14.253,4.634,20.797,8.839c-9.03,11.055-17.582,23.862-22.399,38.21c-0.49,1.459,1.36,2.155,2.009,1.008
			c0.085-0.152,0.171-0.304,0.257-0.456c12.417-9.728,25.997-10.341,40.481-9.753c7.684,0.313,15.354,1.34,22.816,3.591
			c6.394,1.928,12.036,5.525,18.108,8.227c-0.001,0.011-0.002,0.022-0.003,0.032c-0.08,0.873-0.111,1.744-0.083,2.593
			c-0.207,2.07-0.118,4.202,0.409,5.797c0.368,1.112,1.334,2.522,2.379,2.961c1.962,1.594,4.861,0.807,6.99-0.392
			c2-1.125,4.169-2.704,6.45-4.441c5.621,3.796,11.528,6.199,18.021,6.793c5.135,0.47,11.74,0.509,15.965-3.662
			c3.454-3.412,3.499-7.158,1.873-10.414c0.018-1.218,0.01-2.429,0.178-3.46c0.258-1.568,1.112-3.508,1.348-5.286
			c10.224-0.464,20.454,0.035,30.665-0.523c10.21,0.558,20.441,0.059,30.665,0.523c0.234,1.778,1.09,3.717,1.347,5.286
			c0.169,1.031,0.161,2.242,0.179,3.46c-1.626,3.256-1.582,7.002,1.873,10.414c4.224,4.171,10.83,4.132,15.965,3.662
			c6.493-0.594,12.4-2.997,18.021-6.793c2.282,1.737,4.451,3.316,6.45,4.441c2.13,1.198,5.029,1.985,6.991,0.392
			c1.045-0.439,2.01-1.849,2.378-2.961c0.527-1.595,0.616-3.727,0.409-5.797c0.029-0.849-0.002-1.72-0.082-2.593
			c-0.001-0.011-0.002-0.021-0.003-0.032c6.071-2.701,11.715-6.299,18.107-8.227c7.463-2.251,15.134-3.279,22.816-3.591
			c14.484-0.588,28.065,0.024,40.482,9.753c0.086,0.152,0.171,0.304,0.257,0.456C761.969,409.846,763.819,409.149,763.33,407.69z
			 M492.765,397.457c-7.563-2.105-15.371-3.109-23.131-3.329c-11.526-0.326-25.758,0.424-36.208,7.795
			c6.268-11.103,12.561-21.864,20.643-31.476c0.789-0.939,0.614-2.576-0.352-3.245c-6.209-4.302-12.818-7.445-19.759-9.445
			c11.553-8.34,25.122-11.369,38.614-10.704c8.443,0.417,16.8,2.106,24.984,4.56c3.763,1.127,7.536,2.706,11.328,4.161
			c1.686,1.052,3.386,2.061,5.128,2.998c0.969,0.521,1.931,1.112,2.904,1.667c-0.849,0.662-1.676,1.371-2.46,2.125
			c-3.062-2.064-6.725-2.853-10.082-3.965c-3.969-1.314-7.914-2.665-11.926-3.792c-7.796-2.188-15.685-3.897-23.675-4.634
			c-0.147-0.014-0.18,0.277-0.035,0.306c7.857,1.552,15.684,3.276,23.353,5.868c3.702,1.251,7.425,2.612,11.018,4.262
			c2.968,1.363,5.904,3.39,8.974,4.595c-0.436,0.573-0.837,1.164-1.194,1.774c-5.344-3.608-12.612-5.171-18.38-6.942
			c-6.569-2.017-13.336-4.112-20.132-4.627c-0.09-0.007-0.105,0.158-0.021,0.184c6.611,1.997,13.321,3.326,19.844,5.776
			c3.137,1.178,6.231,2.529,9.292,3.964c2.711,1.272,5.427,3.067,8.233,4.15c-0.157,0.46-0.295,0.926-0.396,1.403
			c-0.021,0.095-0.019,0.191-0.021,0.287c-2.119-1.001-4.814-1.292-6.947-1.84c-3.28-0.844-6.537-1.808-9.816-2.659
			c-0.215-0.056-0.297,0.307-0.091,0.39c2.756,1.116,5.527,2.184,8.262,3.368c1.476,0.639,2.942,1.308,4.415,1.954
			c0.522,0.229,3.239,1.025,3.289,1.189c0.062,0.205,0.164,0.393,0.291,0.551c-0.348,1.761-0.46,3.581-0.317,5.323
			c0.344,4.217,2.079,7.685,3.968,11.088c0.217,3.122,0.137,6.108-0.078,9.109c-3.397-3.056-8.716-4.734-12.473-6.044
			c-5.123-1.786-10.87-3.469-16.248-3.107c-0.029,0.003-0.037,0.053-0.007,0.062c5.099,1.464,10.198,2.219,15.186,4.321
			c2.981,1.257,5.896,2.758,8.698,4.506c1.588,0.991,2.982,2.151,4.631,2.836c-0.114,1.248-0.242,2.507-0.373,3.786
			C506.225,401.59,498.895,399.164,492.765,397.457z M526.688,412.532c-1.498,1.063-8.25,7.175-9.847,6.044
			c-0.009-1.268-0.017-2.536-0.024-3.804c0.552-0.525,1.102-1.049,1.654-1.573c0.566-0.475,1.172-0.895,1.771-1.306
			c1.689-1.155,3.477-2.086,5.303-2.895c3.017-1.336,6.148-2.35,9.268-3.275c1.019-0.303,2.04-0.585,3.063-0.856
			c-0.633,0.371-1.257,0.758-1.873,1.157C532.842,408.07,529.779,410.342,526.688,412.532z M547.558,419.874
			c-6.053-0.236-12.175-1.958-17.739-4.858c8.737-6.724,18.809-14.265,27.549-7.746c0.415,0.31,0.815,0.673,1.188,1.076
			c0.685,1,1.169,2.156,1.373,3.424c-1.733,2.53-7.237,3.465-9.669,3.681c-2.987,0.266-5.942-0.2-8.906-0.578
			c-0.174-0.022-0.179,0.275-0.039,0.337c4.055,1.787,8.443,2.305,12.733,1.704c1.6-0.224,3.831-0.639,5.655-1.601
			c-0.275,0.916-0.697,1.726-1.229,2.445c-0.785,0.554-1.676,0.944-2.489,1.23C553.292,419.939,550.346,419.982,547.558,419.874z
			 M560.829,405.801c-0.016,0.098-0.034,0.202-0.051,0.304c-1.894-1.97-4.305-3.527-6.601-4.369
			c0.836-0.105,1.674-0.207,2.511-0.299c1.729-0.189,3.457-0.334,5.186-0.447C561.309,402.613,561.033,404.561,560.829,405.801z
			 M595.466,396.994c-14.042-1.48-28.771-0.74-42.664,1.079c-11.619,1.521-25.388,3.551-35.453,11.203
			c-0.756,0.575-1.592,1.299-2.372,2.131c-0.164-1.33-0.348-2.657-0.542-3.981c0.229-1.825,0.487-3.648,0.545-5.39
			c0.084-2.558-0.101-5.111-0.479-7.625c0.768,1.45,1.481,2.933,2.046,4.502c0.139,0.387,0.573,0.082,0.525-0.264
			c-0.787-5.703-3.503-10.578-5.068-15.956c-1.252-4.296-0.873-8.002,0.445-11.521c2.112-2.246,3.821-5.065,6.181-7.074
			c2.929-2.494,6.207-4.388,9.587-5.836c6.818-2.922,14.026-4.232,21.196-5.214c9.165-1.255,18.37-1.956,27.591-2.222
			c5.963-0.172,12.313,0.597,18.463,0.49c6.15,0.107,12.5-0.662,18.462-0.49c9.222,0.267,18.426,0.967,27.591,2.222
			c7.17,0.982,14.379,2.292,21.196,5.214c3.38,1.449,6.659,3.343,9.587,5.836c2.359,2.009,4.069,4.829,6.182,7.074
			c1.318,3.52,1.696,7.225,0.445,11.521c-1.566,5.378-4.282,10.253-5.069,15.956c-0.048,0.347,0.387,0.651,0.526,0.264
			c0.563-1.569,1.278-3.052,2.045-4.502c-0.379,2.515-0.563,5.068-0.479,7.625c0.058,1.741,0.317,3.564,0.546,5.39
			c-0.195,1.324-0.378,2.651-0.543,3.981c-0.78-0.832-1.616-1.556-2.372-2.131c-10.065-7.652-23.834-9.682-35.452-11.203
			C624.236,396.254,609.508,395.515,595.466,396.994z M634.242,401.436c0.838,0.092,1.675,0.193,2.512,0.299
			c-2.297,0.842-4.706,2.399-6.601,4.369c-0.018-0.102-0.035-0.206-0.052-0.304c-0.203-1.239-0.479-3.188-1.045-4.811
			C630.786,401.103,632.515,401.248,634.242,401.436z M643.373,419.874c-2.788,0.108-5.733,0.065-8.427-0.886
			c-0.813-0.286-1.703-0.677-2.489-1.23c-0.531-0.72-0.953-1.529-1.229-2.445c1.823,0.962,4.056,1.377,5.654,1.601
			c4.291,0.601,8.68,0.083,12.733-1.704c0.14-0.062,0.136-0.359-0.038-0.337c-2.964,0.378-5.92,0.844-8.906,0.578
			c-2.433-0.216-7.936-1.15-9.67-3.681c0.204-1.267,0.689-2.424,1.374-3.424c0.372-0.403,0.773-0.767,1.188-1.076
			c8.741-6.519,18.813,1.022,27.55,7.746C655.548,417.916,649.426,419.638,643.373,419.874z M674.091,418.576
			c-1.597,1.131-8.349-4.982-9.848-6.044c-3.091-2.19-6.154-4.462-9.315-6.508c-0.615-0.399-1.24-0.786-1.872-1.157
			c1.023,0.272,2.045,0.554,3.063,0.856c3.119,0.926,6.252,1.939,9.268,3.275c1.824,0.809,3.612,1.739,5.303,2.895
			c0.6,0.411,1.205,0.831,1.771,1.306c0.551,0.524,1.103,1.049,1.653,1.573C674.106,416.04,674.099,417.309,674.091,418.576z
			 M721.297,394.129c-7.759,0.219-15.566,1.224-23.131,3.329c-6.131,1.706-13.459,4.132-18.934,8.55
			c-0.132-1.279-0.259-2.538-0.373-3.786c1.647-0.685,3.042-1.845,4.631-2.836c2.802-1.748,5.717-3.249,8.698-4.506
			c4.986-2.102,10.086-2.857,15.186-4.321c0.029-0.009,0.021-0.059-0.007-0.062c-5.378-0.362-11.126,1.321-16.248,3.107
			c-3.757,1.31-9.076,2.988-12.473,6.044c-0.216-3-0.295-5.987-0.079-9.109c1.889-3.403,3.625-6.871,3.969-11.088
			c0.142-1.743,0.029-3.562-0.317-5.323c0.126-0.159,0.228-0.346,0.291-0.551c0.05-0.165,2.766-0.96,3.288-1.189
			c1.474-0.646,2.939-1.315,4.415-1.954c2.735-1.184,5.507-2.252,8.262-3.368c0.207-0.083,0.124-0.446-0.091-0.39
			c-3.278,0.851-6.536,1.815-9.816,2.659c-2.132,0.548-4.827,0.839-6.947,1.84c-0.002-0.096,0-0.192-0.019-0.287
			c-0.102-0.477-0.238-0.943-0.396-1.403c2.808-1.083,5.523-2.878,8.234-4.15c3.06-1.435,6.155-2.786,9.292-3.964
			c6.522-2.45,13.232-3.779,19.844-5.776c0.084-0.025,0.068-0.19-0.021-0.184c-6.796,0.515-13.561,2.61-20.131,4.627
			c-5.768,1.771-13.036,3.334-18.381,6.942c-0.356-0.61-0.758-1.201-1.193-1.774c3.069-1.205,6.006-3.231,8.973-4.595
			c3.593-1.65,7.315-3.011,11.019-4.262c7.669-2.592,15.496-4.316,23.353-5.868c0.144-0.029,0.112-0.32-0.034-0.306
			c-7.991,0.737-15.88,2.446-23.676,4.634c-4.012,1.126-7.956,2.478-11.926,3.792c-3.357,1.112-7.019,1.901-10.082,3.965
			c-0.784-0.754-1.611-1.463-2.46-2.125c0.975-0.555,1.935-1.146,2.905-1.667c1.742-0.937,3.442-1.946,5.128-2.998
			c3.791-1.455,7.565-3.034,11.327-4.161c8.185-2.453,16.541-4.143,24.984-4.56c13.492-0.665,27.063,2.364,38.614,10.704
			c-6.94,2-13.55,5.143-19.759,9.445c-0.966,0.669-1.141,2.306-0.351,3.245c8.081,9.612,14.375,20.373,20.643,31.476
			C747.056,394.553,732.824,393.803,721.297,394.129z"/>
		<path id="XMLID_50_" style="fill:#414042;" d="M382.445,603.896c-10.99-6.024-22.846-9.384-34.957-9.665
			c-5.8-0.134-11.592,0.439-17.298,1.684c-4.311,0.939-10.39,1.947-14.458,4.958c-0.029-0.195-0.056-0.393-0.088-0.584
			c-0.839-5.044-3.236-9.732-6.539-13.035c-8.278-8.279-18.814-4.007-27.445,1.029c-11.676,6.812-23.257,13.385-35.989,16.941
			c-6.503,1.816-13.128,2.965-19.788,3.546c-5.413,0.472-10.883,0.154-16.302,0.38c-5.419-0.226-10.889,0.092-16.302-0.38
			c-6.661-0.581-13.285-1.729-19.789-3.546c-12.732-3.557-24.313-10.13-35.989-16.941c-8.631-5.036-19.167-9.309-27.445-1.029
			c-3.302,3.303-5.7,7.991-6.539,13.035c-0.032,0.191-0.059,0.389-0.088,0.584c-4.069-3.011-10.146-4.019-14.458-4.958
			c-5.706-1.244-11.497-1.817-17.298-1.684c-12.111,0.281-23.968,3.641-34.957,9.665c-1.279,0.701-0.715,2.779,0.357,3.254
			c6.531,2.891,12.489,6.755,18.181,11.43c-8.366,7.453-15.002,17.216-18.733,28.947c-0.502,1.58,1.61,2.697,2.301,1.39
			c23.678-8.434,47.489-3.978,69.905,7.216c8.856,4.422,17.978,9.189,27.752,9.318c5.825,0.077,16.453-1.794,15.87-11.408
			c-0.046-0.758-0.173-1.466-0.366-2.132c0.031,0.016,0.062,0.033,0.093,0.049c18.075,9.047,37.696,16.489,57.506,15.291
			c19.811,1.198,39.431-6.244,57.506-15.291c0.031-0.016,0.062-0.033,0.093-0.049c-0.192,0.666-0.32,1.374-0.366,2.132
			c-0.582,9.614,10.045,11.485,15.87,11.408c9.774-0.13,18.896-4.896,27.752-9.318c22.416-11.193,46.227-15.649,69.905-7.216
			c0.69,1.308,2.803,0.19,2.301-1.39c-3.73-11.732-10.367-21.494-18.733-28.947c5.692-4.675,11.65-8.539,18.181-11.43
			C383.16,606.675,383.724,604.597,382.445,603.896z M39.859,646.218c4.183-10.606,10.262-19.682,18.604-26.178
			c0.982-0.766,0.866-2.181,0-2.97c-5.266-4.8-11.039-8.638-17.125-11.696c9.848-4.802,20.374-7.355,31.041-7.474
			c5.751-0.065,11.521,0.53,17.166,1.842c2.78,0.646,5.511,1.491,8.232,2.42c1.761,0.602,3.484,1.458,5.273,1.819
			c-0.1,0.966-0.195,1.943-0.306,2.92c-9.448-3.501-20.603-6.715-30.459-5.861c-0.113,0.01-0.149,0.212-0.028,0.245
			c5.148,1.407,10.471,1.867,15.646,3.218c4.93,1.287,9.716,3.065,14.497,4.961c-0.138,0.851-0.309,1.685-0.518,2.5
			c-3.163-1.867-6.81-2.711-10.219-3.634c-3.789-1.025-7.586-2.098-11.462-2.503c-0.062-0.007-0.067,0.103-0.014,0.122
			c3.449,1.313,6.999,2.15,10.49,3.289c3.65,1.191,6.933,2.969,10.332,4.791c-0.522,1.158-1.1,2.299-1.735,3.426
			c-0.045,0.055-0.083,0.113-0.129,0.168c-0.086,0.1-0.127,0.215-0.151,0.334c-2.183,3.793-4.395,7.311-5.506,11.791
			c-0.464,1.872-0.83,4.217-0.87,6.549c-1.41-0.311-2.906-0.395-4.218-0.664c-2.771-0.57-5.578-1.401-8.39-1.537
			c-0.111-0.005-0.114,0.173-0.024,0.214c2.777,1.275,5.824,1.874,8.716,2.709c1.295,0.375,2.696,0.626,3.955,1.164
			c0.061,0.878,0.186,1.732,0.379,2.54c-2.568-1.129-5.375-1.754-7.919-2.369c-4.609-1.115-9.588-2.266-14.298-1.698
			c-0.163,0.02-0.228,0.325-0.042,0.367c4.416,1.005,8.894,1.254,13.265,2.61c3.463,1.074,6.889,3.108,10.367,4.242
			c0.171,0.236,0.35,0.465,0.55,0.672c0.295,0.724,0.663,1.387,1.107,1.979C77.782,639.156,58.224,639.615,39.859,646.218z
			 M98.114,637.56c1.638-3.664,5.334-4.518,8.492-4.61c5.177-0.153,10.575,1.656,15.45,3.573c4.501,1.768,8.864,3.977,13.185,6.31
			c-9.912-0.051-19.395,5.548-29.268,4.911C101.842,647.479,95.392,643.649,98.114,637.56z M141.83,661.905
			c-5.385,1.039-10.863,0.151-16.083-1.561c-6.817-2.237-13.214-5.809-19.687-9.145c1.11,0.095,2.197,0.099,3.209,0.029
			c4.366,2.487,9.574,3.936,14.128,5.1c4.927,1.26,10.234,3.115,15.278,1.722c0.016-0.004,0.01-0.029-0.003-0.03
			c-6.041-0.596-11.412-1.009-17.138-3.615c-2.579-1.173-5.266-2.673-8-3.841c0.488-0.104,0.976-0.215,1.464-0.333
			c1.964,1.059,4.308,1.42,6.365,1.907c2.612,0.619,5.185,0.884,7.837,1.104c0.034,0.003,0.032-0.057,0-0.062
			c-2.929-0.455-5.889-1.232-8.722-2.238c-1.036-0.368-2.035-0.874-3.04-1.344c7.938-2.192,15.898-5.36,23.966-2.873
			c1.581,0.487,3.162,1.138,4.563,2.149c2.335,1.686,3.259,2.591,3.199,5.868C149.072,659.803,145.516,661.195,141.83,661.905z
			 M209.58,663.701c-24.476-0.597-46.96-10.253-69.104-22.313c-9.073-4.941-18.302-10.005-28.26-11.748
			c-5.479-0.959-13.684-0.793-16.768,5.433c0.458-4.911,2.726-10.047,4.733-13.607c2.729-4.84,4.88-10.007,5.248-15.72
			c0.988-5.222,2.365-10.313,5.622-14.275c9.923-12.074,24.556,0.295,34.537,5.842c10.876,6.045,22.14,10.788,33.995,13.216
			c9.471,1.94,20.172,3.61,29.998,2.327c9.825,1.283,20.527-0.387,29.998-2.327c11.855-2.428,23.118-7.171,33.994-13.216
			c9.98-5.547,24.613-17.916,34.537-5.842c3.256,3.963,4.634,9.054,5.622,14.275c0.367,5.713,2.518,10.88,5.247,15.72
			c2.007,3.56,4.274,8.695,4.733,13.607c-3.084-6.226-11.288-6.392-16.768-5.433c-9.958,1.743-19.187,6.807-28.26,11.748
			C256.54,653.448,234.056,663.104,209.58,663.701z M293.413,660.344c-5.22,1.713-10.698,2.6-16.083,1.561
			c-3.686-0.71-7.242-2.103-7.334-7.163c-0.06-3.277,0.864-4.183,3.199-5.868c1.401-1.012,2.982-1.662,4.563-2.149
			c8.068-2.487,16.027,0.681,23.966,2.873c-1.005,0.47-2.004,0.975-3.04,1.344c-2.834,1.006-5.793,1.783-8.722,2.238
			c-0.032,0.005-0.034,0.064,0,0.062c2.652-0.22,5.225-0.484,7.837-1.104c2.057-0.487,4.401-0.848,6.365-1.907
			c0.488,0.118,0.977,0.228,1.464,0.333c-2.734,1.168-5.421,2.668-8,3.841c-5.727,2.606-11.097,3.02-17.138,3.615
			c-0.014,0.001-0.019,0.026-0.003,0.03c5.044,1.394,10.351-0.462,15.278-1.722c4.553-1.164,9.761-2.612,14.127-5.1
			c1.013,0.069,2.099,0.065,3.21-0.029C306.627,654.535,300.23,658.106,293.413,660.344z M313.188,647.744
			c-9.874,0.637-19.357-4.962-29.269-4.911c4.321-2.334,8.684-4.542,13.186-6.31c4.875-1.917,10.273-3.727,15.45-3.573
			c3.158,0.093,6.854,0.946,8.492,4.61C323.769,643.649,317.318,647.479,313.188,647.744z M360.696,617.07
			c-0.866,0.789-0.982,2.204,0,2.97c8.343,6.496,14.421,15.571,18.604,26.178c-18.365-6.603-37.922-7.061-56.206,0.308
			c0.444-0.592,0.813-1.255,1.107-1.979c0.2-0.207,0.379-0.436,0.55-0.672c3.478-1.134,6.904-3.168,10.367-4.242
			c4.371-1.356,8.849-1.606,13.265-2.61c0.187-0.042,0.122-0.348-0.042-0.367c-4.71-0.567-9.689,0.583-14.298,1.698
			c-2.544,0.615-5.35,1.24-7.919,2.369c0.193-0.809,0.318-1.662,0.379-2.54c1.259-0.538,2.659-0.789,3.955-1.164
			c2.892-0.835,5.939-1.434,8.716-2.709c0.09-0.041,0.087-0.219-0.024-0.214c-2.812,0.136-5.619,0.967-8.39,1.537
			c-1.312,0.269-2.808,0.354-4.218,0.664c-0.04-2.332-0.406-4.677-0.87-6.549c-1.111-4.48-3.324-7.998-5.506-11.791
			c-0.024-0.119-0.065-0.234-0.151-0.334c-0.046-0.055-0.084-0.113-0.129-0.168c-0.635-1.127-1.212-2.268-1.735-3.426
			c3.399-1.822,6.682-3.6,10.332-4.791c3.491-1.139,7.041-1.976,10.49-3.289c0.053-0.02,0.047-0.129-0.014-0.122
			c-3.875,0.405-7.673,1.478-11.462,2.503c-3.409,0.923-7.056,1.767-10.219,3.634c-0.209-0.815-0.38-1.649-0.518-2.5
			c4.781-1.896,9.567-3.674,14.497-4.961c5.174-1.351,10.497-1.811,15.646-3.218c0.121-0.033,0.085-0.235-0.028-0.245
			c-9.856-0.853-21.011,2.36-30.459,5.861c-0.111-0.977-0.206-1.954-0.306-2.92c1.789-0.361,3.512-1.218,5.273-1.819
			c2.721-0.929,5.452-1.774,8.232-2.42c5.646-1.311,11.415-1.906,17.166-1.842c10.667,0.118,21.193,2.672,31.04,7.474
			C371.735,608.433,365.962,612.271,360.696,617.07z"/>
		<path id="XMLID_25_" style="fill:#414042;" d="M730.082,634.204c-1.531-4.946-2.81-9.981-3.809-15.116
			c-0.781-4.021-1.131-8.191-1.732-12.265c0.22-3.107,0.196-6.212-0.32-9.298c-0.422-2.525-1.248-5.396-2.511-7.872
			c-0.025-0.109-0.056-0.221-0.1-0.333c-3.94-10.097-16.619-11.014-24.6-10.021c-12.189,1.516-23.428,7.506-34.897,12.216
			c-11.862,4.871-24.124,8.396-36.554,10.454c-6.578,1.09-13.209,1.756-19.847,2.023c-1.763,0.071-3.525,0.104-5.289,0.116
			c-1.563-0.33-3.25-0.021-4.958-0.003c-1.709-0.018-3.395-0.327-4.959,0.003c-1.763-0.013-3.525-0.045-5.289-0.116
			c-6.637-0.268-13.268-0.934-19.846-2.023c-12.43-2.059-24.691-5.583-36.554-10.454c-11.471-4.71-22.708-10.7-34.898-12.216
			c-7.979-0.992-20.659-0.075-24.6,10.021c-0.044,0.112-0.075,0.224-0.1,0.333c-1.263,2.476-2.088,5.347-2.511,7.872
			c-0.516,3.086-0.54,6.19-0.32,9.298c-0.602,4.073-0.951,8.243-1.732,12.265c-0.998,5.135-2.276,10.17-3.808,15.116
			c-1.926,6.222-6.133,15.376-4.016,22.366c-0.065,1.016,0.072,2.059,0.476,3.11c2.649,6.893,10.757,9.581,16.4,10.625
			c6.937,1.284,15.27,0.897,21.719-2.753c2.756-1.559,3.536-4.074,2.888-6.409c0.153-2.151-0.482-4.603-0.645-6.664
			c-0.133-1.698-0.009-3.903-0.232-5.835c9.206,1.433,18.343,3.569,27.418,5.834c12.58,3.138,25.114,6.597,37.821,8.952
			c10.548,1.955,22.004,4.101,32.785,2.801c10.78,1.3,22.236-0.846,32.784-2.801c12.707-2.356,25.241-5.815,37.822-8.952
			c9.074-2.265,18.211-4.401,27.417-5.834c-0.223,1.932-0.098,4.137-0.231,5.835c-0.162,2.062-0.798,4.513-0.644,6.664
			c-0.649,2.335,0.131,4.85,2.887,6.409c6.45,3.65,14.783,4.037,21.719,2.753c5.644-1.044,13.753-3.732,16.401-10.625
			c0.404-1.052,0.54-2.095,0.476-3.11C736.215,649.58,732.008,640.426,730.082,634.204z M491.499,665.077
			c-7.032,2.492-14.675,2.615-21.725,0.148c-2.754-0.964-6.664-2.633-8.375-5.618c-2.436-4.255,1.456-7.73,4.357-9.513
			c3.386-2.079,7.232-2.869,11.105-3.081c-0.212,1.078-0.329,2.226-0.574,3.202c-0.499,1.989-1.575,3.871-1.851,5.893
			c-0.111,0.813,0.353,1.467,0.916,1.546c0.108,0.065,0.228,0.11,0.364,0.096c4.005-0.418,7.81-0.898,11.801,0.071
			c1.567,0.381,4.628,1.016,5.761,2.357l0.36,0.239c-4.285,2.965-9.845,2.438-14.537,2.355c-0.218-0.004-0.235,0.349-0.049,0.428
			c2.858,1.215,6.113,1.193,9.122,1.139c1.654-0.03,3.703-0.121,5.498-0.691c-0.041,0.213-0.082,0.426-0.123,0.64
			C493.197,664.695,491.972,664.91,491.499,665.077z M494.748,654.713c0.025,0.637,0.056,1.348,0.11,2.08
			c-5.05-3.069-11.726-3.878-17.274-1.932c0.485-1.269,0.816-2.677,1.085-3.864c0.273-1.209,0.605-2.674,0.612-4.049
			c1.92,0.001,3.825,0.106,5.662,0.235c3.44,0.245,6.87,0.629,10.29,1.117C494.683,650.354,494.681,652.968,494.748,654.713z
			 M652.24,653.519c-9.545,2.37-19.115,4.682-28.771,6.316c-9.354,1.584-18.642,1.595-28.004,2.275
			c-9.362-0.68-18.65-0.69-28.005-2.275c-9.655-1.635-19.225-3.946-28.769-6.316c-17.005-4.225-34.052-8.777-51.415-10.305
			c-7.316-0.644-15.326-0.952-22.169,2.735c-1.597,0.86-3.567,2.312-5.186,4.131c0.284-2.219,0.696-4.437,1.376-6.765
			c1.31-4.492,2.885-8.851,3.952-13.442c1.008-4.333,2.019-9.235,2.565-14.161c0.775,3.3,1.619,6.581,1.776,9.96
			c0.014,0.278,0.372,0.282,0.366,0c-0.076-4.386,0.298-8.641-0.068-13.026c-0.297-3.549-0.81-7.065-0.729-10.646
			c0.021-0.97,0.089-1.89,0.194-2.771c1.026-1.343,2.002-2.669,3.34-3.783c2.066-1.723,4.315-2.783,6.826-3.096
			c0.066-0.008,0.069-0.128,0-0.124c-2.734,0.12-5.953,1.014-8.516,2.88c2.368-3.471,5.266-5.465,9.614-6.286
			c5.593-1.056,11.25-2.171,16.895-1.138c0.163,0.03,0.237-0.253,0.07-0.3c-5.025-1.402-14.604-2.729-21.536-0.184
			c3.072-2.191,6.283-3.585,10.365-3.958c5.619-0.514,11.324,0.654,16.75,2.306c11.481,3.495,22.314,9.471,33.685,13.421
			c11.199,3.891,22.688,6.543,34.287,8c5.981,0.751,11.991,1.17,18.004,1.255c1.254,0.018,2.781,0.172,4.38,0.266
			c0.58,0.048,1.17,0.067,1.764,0.066c0.062,0.001,0.122,0.001,0.184,0.002c0.061-0.001,0.122-0.001,0.183-0.002
			c0.594,0.001,1.185-0.019,1.764-0.066c1.6-0.094,3.126-0.247,4.38-0.266c6.014-0.085,12.023-0.504,18.004-1.255
			c11.6-1.457,23.089-4.109,34.287-8c11.37-3.95,22.205-9.926,33.686-13.421c5.425-1.651,11.13-2.819,16.749-2.306
			c4.082,0.373,7.293,1.767,10.365,3.958c-6.932-2.545-16.511-1.219-21.535,0.184c-0.168,0.047-0.093,0.33,0.069,0.3
			c5.644-1.033,11.303,0.082,16.896,1.138c4.349,0.821,7.245,2.815,9.614,6.286c-2.563-1.866-5.782-2.76-8.517-2.88
			c-0.068-0.004-0.065,0.116,0,0.124c2.512,0.313,4.76,1.373,6.827,3.096c1.337,1.114,2.313,2.44,3.34,3.783
			c0.105,0.881,0.172,1.801,0.194,2.771c0.081,3.581-0.432,7.098-0.728,10.646c-0.367,4.386,0.008,8.641-0.069,13.026
			c-0.005,0.282,0.354,0.278,0.366,0c0.158-3.379,1.002-6.66,1.776-9.96c0.547,4.926,1.558,9.828,2.565,14.161
			c1.068,4.592,2.643,8.95,3.953,13.442c0.679,2.328,1.091,4.546,1.375,6.765c-1.619-1.819-3.59-3.271-5.187-4.131
			c-6.842-3.688-14.852-3.38-22.169-2.735C686.292,644.742,669.244,649.295,652.24,653.519z M705.988,647.184
			c1.836-0.13,3.741-0.234,5.661-0.235c0.007,1.375,0.339,2.84,0.612,4.049c0.27,1.188,0.601,2.596,1.085,3.864
			c-5.549-1.946-12.224-1.138-17.274,1.932c0.055-0.733,0.086-1.443,0.11-2.08c0.067-1.745,0.065-4.358-0.485-6.412
			C699.117,647.813,702.547,647.429,705.988,647.184z M729.531,659.606c-1.711,2.985-5.62,4.654-8.374,5.618
			c-7.051,2.468-14.693,2.345-21.726-0.148c-0.473-0.167-1.697-0.382-2.051-0.791c-0.041-0.214-0.082-0.427-0.122-0.64
			c1.794,0.57,3.843,0.661,5.498,0.691c3.009,0.055,6.263,0.076,9.122-1.139c0.186-0.079,0.168-0.432-0.049-0.428
			c-4.693,0.082-10.253,0.609-14.537-2.355l0.359-0.239c1.134-1.341,4.193-1.976,5.761-2.357c3.99-0.97,7.796-0.489,11.801-0.071
			c0.138,0.015,0.256-0.03,0.365-0.096c0.563-0.079,1.026-0.732,0.916-1.546c-0.276-2.022-1.352-3.903-1.852-5.893
			c-0.245-0.977-0.361-2.124-0.574-3.202c3.874,0.212,7.72,1.002,11.104,3.081C728.075,651.876,731.969,655.352,729.531,659.606z"/>
	</g>
</g>
<g id="DESIGNED_BY_FREEPIK">
	<g id="XMLID_20_">
		<g id="XMLID_80_">
			<path id="XMLID_105_" style="fill:#4B4B4B;" d="M286.024,774.287v-0.258c-0.349,0.399-0.692,0.725-1.031,0.974
				c-0.338,0.251-0.706,0.441-1.102,0.569c-0.395,0.133-0.827,0.195-1.296,0.195c-0.621,0-1.196-0.13-1.725-0.393
				c-0.528-0.263-0.986-0.639-1.372-1.126c-0.387-0.487-0.68-1.06-0.879-1.72c-0.199-0.658-0.299-1.371-0.299-2.137
				c0-1.62,0.396-2.885,1.188-3.791c0.792-0.904,1.833-1.357,3.125-1.357c0.747,0,1.377,0.129,1.89,0.384
				c0.513,0.256,1.013,0.652,1.501,1.183v-3.827c0-0.533,0.105-0.934,0.318-1.206c0.211-0.272,0.514-0.408,0.907-0.408
				c0.393,0,0.694,0.125,0.907,0.375c0.212,0.251,0.318,0.618,0.318,1.107v11.435c0,0.494-0.113,0.863-0.342,1.111
				c-0.228,0.246-0.522,0.369-0.883,0.369c-0.354,0-0.647-0.127-0.879-0.383C286.139,775.127,286.024,774.762,286.024,774.287z
				 M280.923,770.479c0,0.703,0.109,1.301,0.328,1.795c0.219,0.494,0.518,0.865,0.897,1.115c0.38,0.25,0.795,0.377,1.244,0.377
				c0.456,0,0.872-0.119,1.25-0.357c0.376-0.236,0.677-0.602,0.902-1.092c0.225-0.49,0.337-1.104,0.337-1.838
				c0-0.691-0.112-1.284-0.337-1.783c-0.225-0.495-0.528-0.875-0.912-1.139c-0.383-0.262-0.803-0.392-1.258-0.392
				c-0.475,0-0.899,0.135-1.273,0.402c-0.374,0.269-0.663,0.654-0.869,1.158C281.026,769.229,280.923,769.813,280.923,770.479z"/>
			<path id="XMLID_102_" style="fill:#4B4B4B;" d="M297.457,771.135h-5.071c0.006,0.588,0.124,1.107,0.357,1.557
				c0.23,0.45,0.538,0.789,0.921,1.017c0.383,0.229,0.806,0.341,1.268,0.341c0.31,0,0.593-0.035,0.85-0.107
				c0.257-0.074,0.505-0.188,0.746-0.343c0.241-0.154,0.462-0.321,0.665-0.499c0.202-0.178,0.464-0.42,0.788-0.723
				c0.133-0.113,0.323-0.172,0.571-0.172c0.266,0,0.48,0.074,0.645,0.221c0.165,0.147,0.248,0.35,0.248,0.617
				c0,0.234-0.093,0.507-0.275,0.82c-0.185,0.314-0.462,0.615-0.832,0.903c-0.372,0.288-0.835,0.526-1.397,0.717
				c-0.559,0.19-1.204,0.284-1.933,0.284c-1.664,0-2.96-0.475-3.884-1.424c-0.924-0.949-1.386-2.238-1.386-3.865
				c0-0.767,0.113-1.479,0.341-2.133c0.228-0.655,0.561-1.217,0.997-1.685c0.437-0.469,0.975-0.827,1.615-1.078
				c0.639-0.25,1.349-0.374,2.128-0.374c1.013,0,1.882,0.212,2.606,0.641c0.726,0.427,1.27,0.98,1.63,1.655
				c0.36,0.679,0.542,1.37,0.542,2.071c0,0.653-0.187,1.075-0.56,1.27C298.662,771.037,298.136,771.135,297.457,771.135z
				 M292.386,769.662h4.702c-0.063-0.887-0.303-1.551-0.717-1.99c-0.415-0.44-0.96-0.66-1.638-0.66
				c-0.646,0-1.177,0.223-1.591,0.668C292.727,768.127,292.476,768.787,292.386,769.662z"/>
			<path id="XMLID_100_" style="fill:#4B4B4B;" d="M309.272,772.377c0,0.715-0.173,1.328-0.522,1.839
				c-0.348,0.509-0.862,0.896-1.544,1.159c-0.68,0.263-1.508,0.393-2.483,0.393c-0.931,0-1.728-0.143-2.393-0.427
				c-0.665-0.284-1.156-0.642-1.472-1.067c-0.317-0.429-0.475-0.857-0.475-1.289c0-0.284,0.101-0.527,0.304-0.73
				c0.202-0.201,0.459-0.303,0.769-0.303c0.272,0,0.48,0.066,0.626,0.199s0.286,0.32,0.418,0.559
				c0.266,0.465,0.585,0.808,0.956,1.037c0.37,0.227,0.874,0.342,1.515,0.342c0.519,0,0.945-0.117,1.277-0.347
				c0.332-0.233,0.498-0.496,0.498-0.794c0-0.456-0.172-0.787-0.518-0.996c-0.345-0.209-0.914-0.41-1.705-0.6
				c-0.893-0.221-1.619-0.454-2.18-0.698c-0.561-0.242-1.008-0.565-1.344-0.963c-0.335-0.399-0.503-0.891-0.503-1.474
				c0-0.518,0.155-1.009,0.465-1.472c0.311-0.462,0.768-0.831,1.374-1.106c0.604-0.275,1.333-0.414,2.188-0.414
				c0.671,0,1.275,0.07,1.809,0.211c0.536,0.137,0.983,0.326,1.34,0.561c0.358,0.233,0.63,0.492,0.816,0.777
				c0.186,0.285,0.28,0.564,0.28,0.836c0,0.298-0.1,0.541-0.298,0.732c-0.199,0.188-0.482,0.285-0.851,0.285
				c-0.266,0-0.492-0.076-0.679-0.229c-0.186-0.151-0.4-0.38-0.641-0.683c-0.196-0.253-0.426-0.457-0.693-0.608
				c-0.266-0.152-0.627-0.227-1.083-0.227c-0.469,0-0.857,0.098-1.168,0.3c-0.31,0.198-0.465,0.446-0.465,0.743
				c0,0.273,0.114,0.496,0.341,0.67c0.229,0.176,0.535,0.32,0.922,0.434c0.386,0.113,0.917,0.252,1.596,0.416
				c0.803,0.197,1.46,0.433,1.97,0.704c0.509,0.271,0.896,0.593,1.16,0.964C309.142,771.481,309.272,771.902,309.272,772.377z"/>
			<path id="XMLID_97_" style="fill:#4B4B4B;" d="M311.921,764.021c-0.361,0-0.669-0.112-0.926-0.333
				c-0.256-0.221-0.385-0.534-0.385-0.941c0-0.367,0.131-0.668,0.394-0.906c0.263-0.238,0.569-0.356,0.917-0.356
				c0.336,0,0.633,0.107,0.893,0.323c0.26,0.216,0.39,0.527,0.39,0.94c0,0.4-0.127,0.712-0.381,0.937
				C312.57,763.907,312.27,764.021,311.921,764.021z M313.204,766.697v7.494c0,0.519-0.124,0.913-0.371,1.179
				c-0.248,0.265-0.56,0.397-0.94,0.397c-0.38,0-0.689-0.135-0.926-0.408c-0.238-0.271-0.356-0.662-0.356-1.168v-7.418
				c0-0.512,0.118-0.898,0.356-1.158c0.237-0.26,0.546-0.391,0.926-0.391c0.38,0,0.693,0.131,0.94,0.391
				C313.081,765.875,313.204,766.236,313.204,766.697z"/>
			<path id="XMLID_94_" style="fill:#4B4B4B;" d="M324.563,767.125v7.532c0,0.86-0.093,1.603-0.277,2.224
				c-0.182,0.619-0.477,1.133-0.883,1.537c-0.405,0.404-0.935,0.707-1.59,0.902c-0.655,0.197-1.471,0.295-2.446,0.295
				c-0.893,0-1.69-0.125-2.394-0.375c-0.702-0.252-1.243-0.574-1.624-0.969c-0.379-0.396-0.57-0.803-0.57-1.221
				c0-0.316,0.108-0.576,0.324-0.773c0.215-0.201,0.475-0.301,0.778-0.301c0.38,0,0.712,0.169,0.997,0.504
				c0.139,0.17,0.283,0.345,0.432,0.518c0.149,0.175,0.314,0.323,0.494,0.446c0.181,0.123,0.397,0.215,0.65,0.275
				c0.253,0.059,0.545,0.09,0.874,0.09c0.671,0,1.192-0.094,1.563-0.281c0.371-0.185,0.63-0.447,0.779-0.783
				c0.149-0.334,0.236-0.693,0.261-1.078c0.025-0.383,0.044-0.998,0.057-1.848c-0.399,0.559-0.859,0.983-1.382,1.274
				c-0.522,0.29-1.145,0.437-1.866,0.437c-0.868,0-1.626-0.223-2.275-0.665c-0.648-0.444-1.147-1.064-1.495-1.862
				c-0.349-0.799-0.522-1.718-0.522-2.763c0-0.778,0.105-1.483,0.317-2.108c0.213-0.629,0.515-1.156,0.907-1.587
				c0.392-0.431,0.845-0.755,1.358-0.974c0.513-0.218,1.076-0.327,1.691-0.327c0.734,0,1.371,0.142,1.909,0.421
				c0.538,0.284,1.038,0.726,1.5,1.326v-0.352c0-0.449,0.11-0.797,0.332-1.045c0.222-0.246,0.507-0.371,0.855-0.371
				c0.5,0,0.832,0.164,0.996,0.49C324.48,766.041,324.563,766.512,324.563,767.125z M317.05,770.412
				c0,1.051,0.229,1.846,0.688,2.384c0.459,0.538,1.053,0.808,1.781,0.808c0.43,0,0.837-0.116,1.22-0.347
				c0.384-0.231,0.695-0.581,0.936-1.045c0.24-0.466,0.361-1.03,0.361-1.695c0-1.058-0.232-1.882-0.698-2.47
				c-0.466-0.588-1.078-0.883-1.838-0.883c-0.741,0-1.334,0.281-1.78,0.846C317.272,768.572,317.05,769.374,317.05,770.412z"/>
			<path id="XMLID_92_" style="fill:#4B4B4B;" d="M328.684,766.66v0.313c0.455-0.602,0.954-1.044,1.496-1.325
				c0.542-0.281,1.163-0.424,1.866-0.424c0.684,0,1.295,0.15,1.834,0.447c0.538,0.299,0.941,0.72,1.206,1.262
				c0.172,0.318,0.282,0.661,0.332,1.027c0.051,0.368,0.077,0.836,0.077,1.406v4.824c0,0.519-0.119,0.913-0.357,1.179
				c-0.237,0.265-0.546,0.397-0.926,0.397c-0.387,0-0.7-0.135-0.94-0.408c-0.241-0.271-0.361-0.662-0.361-1.168v-4.321
				c0-0.854-0.119-1.509-0.357-1.962c-0.238-0.451-0.71-0.679-1.42-0.679c-0.461,0-0.883,0.138-1.263,0.413
				c-0.38,0.275-0.659,0.654-0.836,1.136c-0.126,0.386-0.19,1.107-0.19,2.165v3.248c0,0.525-0.122,0.921-0.365,1.184
				c-0.244,0.263-0.559,0.393-0.945,0.393c-0.375,0-0.681-0.135-0.922-0.408c-0.24-0.271-0.361-0.662-0.361-1.168v-7.494
				c0-0.493,0.107-0.863,0.323-1.107c0.215-0.243,0.51-0.366,0.883-0.366c0.229,0,0.435,0.055,0.619,0.163
				c0.183,0.108,0.33,0.27,0.441,0.483C328.628,766.087,328.684,766.35,328.684,766.66z"/>
			<path id="XMLID_89_" style="fill:#4B4B4B;" d="M344.458,771.135h-5.071c0.007,0.588,0.125,1.107,0.357,1.557
				c0.231,0.45,0.538,0.789,0.921,1.017c0.382,0.229,0.805,0.341,1.267,0.341c0.311,0,0.594-0.035,0.851-0.107
				c0.255-0.074,0.504-0.188,0.746-0.343c0.24-0.154,0.461-0.321,0.665-0.499c0.202-0.178,0.464-0.42,0.788-0.723
				c0.133-0.113,0.323-0.172,0.57-0.172c0.266,0,0.481,0.074,0.646,0.221c0.165,0.147,0.247,0.35,0.247,0.617
				c0,0.234-0.091,0.507-0.275,0.82c-0.184,0.314-0.461,0.615-0.832,0.903s-0.835,0.526-1.396,0.717
				c-0.56,0.19-1.205,0.284-1.933,0.284c-1.665,0-2.96-0.475-3.885-1.424c-0.923-0.949-1.386-2.238-1.386-3.865
				c0-0.767,0.114-1.479,0.342-2.133c0.228-0.655,0.561-1.217,0.998-1.685c0.436-0.469,0.975-0.827,1.614-1.078
				c0.639-0.25,1.349-0.374,2.128-0.374c1.013,0,1.881,0.212,2.606,0.641c0.726,0.427,1.269,0.98,1.63,1.655
				c0.36,0.679,0.542,1.37,0.542,2.071c0,0.653-0.187,1.075-0.561,1.27C345.662,771.037,345.136,771.135,344.458,771.135z
				 M339.387,769.662h4.701c-0.063-0.887-0.302-1.551-0.717-1.99c-0.415-0.44-0.961-0.66-1.638-0.66
				c-0.646,0-1.177,0.223-1.592,0.668C339.726,768.127,339.476,768.787,339.387,769.662z"/>
			<path id="XMLID_86_" style="fill:#4B4B4B;" d="M355.028,774.287v-0.258c-0.348,0.399-0.691,0.725-1.03,0.974
				c-0.339,0.251-0.706,0.441-1.102,0.569c-0.395,0.133-0.828,0.195-1.296,0.195c-0.622,0-1.196-0.13-1.724-0.393
				c-0.529-0.263-0.986-0.639-1.373-1.126c-0.387-0.487-0.679-1.06-0.878-1.72c-0.2-0.658-0.299-1.371-0.299-2.137
				c0-1.62,0.396-2.885,1.187-3.791c0.792-0.904,1.833-1.357,3.125-1.357c0.747,0,1.377,0.129,1.89,0.384
				c0.513,0.256,1.013,0.652,1.5,1.183v-3.827c0-0.533,0.106-0.934,0.319-1.206c0.211-0.272,0.515-0.408,0.907-0.408
				c0.392,0,0.694,0.125,0.907,0.375c0.212,0.251,0.318,0.618,0.318,1.107v11.435c0,0.494-0.114,0.863-0.342,1.111
				c-0.228,0.246-0.522,0.369-0.883,0.369c-0.355,0-0.648-0.127-0.879-0.383C355.144,775.127,355.028,774.762,355.028,774.287z
				 M349.928,770.479c0,0.703,0.108,1.301,0.327,1.795c0.218,0.494,0.517,0.865,0.898,1.115c0.379,0.25,0.794,0.377,1.243,0.377
				c0.456,0,0.873-0.119,1.249-0.357c0.377-0.236,0.678-0.602,0.902-1.092c0.225-0.49,0.337-1.104,0.337-1.838
				c0-0.691-0.112-1.284-0.337-1.783c-0.224-0.495-0.528-0.875-0.912-1.139c-0.384-0.262-0.803-0.392-1.259-0.392
				c-0.474,0-0.899,0.135-1.272,0.402c-0.373,0.269-0.663,0.654-0.869,1.158C350.03,769.229,349.928,769.813,349.928,770.479z"/>
			<path id="XMLID_83_" style="fill:#4B4B4B;" d="M365.626,762.852v3.96c0.487-0.507,0.984-0.896,1.491-1.163
				c0.506-0.269,1.134-0.403,1.881-0.403c0.861,0,1.616,0.204,2.266,0.611c0.648,0.41,1.151,1.002,1.51,1.776
				c0.358,0.775,0.537,1.696,0.537,2.76c0,0.786-0.1,1.505-0.299,2.161c-0.2,0.655-0.49,1.224-0.869,1.704
				c-0.38,0.48-0.841,0.854-1.382,1.117c-0.542,0.263-1.139,0.393-1.791,0.393c-0.399,0-0.775-0.047-1.126-0.143
				c-0.352-0.094-0.651-0.218-0.898-0.375c-0.246-0.154-0.457-0.313-0.631-0.479c-0.174-0.164-0.404-0.412-0.689-0.742v0.258
				c0,0.487-0.117,0.855-0.352,1.107c-0.233,0.25-0.531,0.373-0.893,0.373c-0.367,0-0.66-0.123-0.878-0.373
				c-0.219-0.252-0.328-0.62-0.328-1.107v-11.322c0-0.525,0.106-0.924,0.317-1.191c0.212-0.269,0.509-0.403,0.889-0.403
				c0.399,0,0.706,0.128,0.921,0.384C365.518,762.012,365.626,762.375,365.626,762.852z M365.749,770.555
				c0,1.032,0.236,1.824,0.708,2.378c0.472,0.555,1.091,0.833,1.857,0.833c0.652,0,1.214-0.283,1.685-0.852
				c0.472-0.566,0.708-1.378,0.708-2.436c0-0.684-0.097-1.273-0.294-1.767c-0.197-0.495-0.475-0.876-0.836-1.146
				c-0.361-0.268-0.783-0.402-1.264-0.402c-0.494,0-0.935,0.135-1.32,0.402c-0.386,0.269-0.69,0.658-0.912,1.168
				C365.86,769.244,365.749,769.852,365.749,770.555z"/>
			<path id="XMLID_81_" style="fill:#4B4B4B;" d="M376.672,776.092l0.237-0.58l-3.191-8.035c-0.196-0.461-0.295-0.798-0.295-1.007
				c0-0.222,0.058-0.427,0.171-0.616c0.114-0.191,0.271-0.344,0.47-0.456c0.2-0.115,0.407-0.173,0.622-0.173
				c0.373,0,0.655,0.12,0.846,0.357c0.19,0.237,0.357,0.576,0.503,1.02l2.194,6.383l2.08-5.936c0.164-0.48,0.313-0.857,0.446-1.131
				c0.133-0.272,0.273-0.455,0.422-0.549c0.148-0.096,0.359-0.144,0.632-0.144c0.197,0,0.385,0.053,0.565,0.158
				c0.18,0.104,0.319,0.245,0.418,0.422c0.098,0.178,0.148,0.363,0.148,0.56c-0.026,0.119-0.066,0.291-0.124,0.514
				c-0.058,0.221-0.126,0.447-0.208,0.674l-3.381,8.852c-0.292,0.779-0.577,1.389-0.855,1.833c-0.279,0.442-0.647,0.785-1.107,1.021
				c-0.459,0.238-1.078,0.357-1.857,0.357c-0.759,0-1.33-0.082-1.709-0.246c-0.381-0.166-0.57-0.467-0.57-0.903
				c0-0.298,0.089-0.527,0.271-0.689c0.18-0.161,0.448-0.244,0.801-0.244c0.14,0,0.276,0.021,0.409,0.059
				c0.165,0.037,0.307,0.058,0.427,0.058c0.297,0,0.532-0.044,0.704-0.134c0.17-0.088,0.324-0.241,0.461-0.461
				C376.337,776.838,376.495,776.516,376.672,776.092z"/>
		</g>
		<g id="XMLID_58_">
			<path id="XMLID_79_" style="fill:#4B4B4B;" d="M414.234,765.45h0.619v-0.778c0-0.814,0.099-1.457,0.306-1.938
				c0.204-0.478,0.556-0.826,1.047-1.045c0.491-0.217,1.163-0.326,2.017-0.326c1.52,0,2.272,0.367,2.272,1.113
				c0,0.239-0.079,0.445-0.239,0.615c-0.154,0.17-0.344,0.257-0.559,0.257c-0.1,0-0.278-0.018-0.527-0.059
				c-0.237-0.033-0.452-0.056-0.623-0.056c-0.467,0-0.767,0.141-0.904,0.415c-0.128,0.275-0.195,0.668-0.195,1.185v0.617h0.633
				c0.99,0,1.48,0.296,1.48,0.896c0,0.418-0.127,0.69-0.392,0.805c-0.262,0.113-0.624,0.17-1.088,0.17h-0.633v6.871
				c0,0.512-0.121,0.9-0.37,1.168c-0.241,0.273-0.554,0.407-0.942,0.407c-0.367,0-0.671-0.134-0.918-0.407
				c-0.244-0.268-0.363-0.656-0.363-1.168v-6.871h-0.715c-0.389,0-0.683-0.083-0.894-0.262c-0.209-0.17-0.314-0.398-0.314-0.677
				C412.931,765.758,413.365,765.45,414.234,765.45"/>
			<path id="XMLID_78_" style="fill:#4B4B4B;" d="M422.724,772.024v2.167c0,0.524-0.133,0.92-0.374,1.18
				c-0.246,0.267-0.559,0.396-0.938,0.396c-0.382,0-0.688-0.132-0.927-0.4c-0.236-0.265-0.36-0.657-0.36-1.175v-7.222
				c0-1.166,0.42-1.749,1.261-1.749c0.434,0,0.743,0.135,0.934,0.408c0.191,0.273,0.295,0.674,0.317,1.208
				c0.308-0.534,0.624-0.935,0.948-1.208c0.333-0.273,0.763-0.408,1.31-0.408c0.549,0,1.072,0.135,1.586,0.408
				c0.515,0.273,0.771,0.637,0.771,1.084c0,0.315-0.11,0.58-0.325,0.782c-0.221,0.209-0.455,0.311-0.707,0.311
				c-0.1,0-0.33-0.063-0.692-0.18c-0.365-0.113-0.689-0.173-0.963-0.173c-0.38,0-0.692,0.102-0.932,0.298
				c-0.242,0.205-0.431,0.497-0.563,0.887c-0.13,0.395-0.22,0.865-0.273,1.404C422.746,770.584,422.724,771.246,422.724,772.024"/>
			<path id="XMLID_75_" style="fill:#4B4B4B;" d="M434.645,771.132h-5.074c0.01,0.588,0.124,1.11,0.355,1.559
				c0.234,0.446,0.539,0.786,0.924,1.017c0.385,0.227,0.804,0.34,1.269,0.34c0.311,0,0.593-0.033,0.85-0.111
				c0.254-0.069,0.505-0.185,0.745-0.341c0.242-0.153,0.46-0.319,0.664-0.5c0.203-0.175,0.467-0.416,0.791-0.72
				c0.134-0.112,0.324-0.174,0.567-0.174c0.268,0,0.481,0.074,0.649,0.223c0.166,0.146,0.243,0.351,0.243,0.617
				c0,0.234-0.089,0.508-0.268,0.818c-0.188,0.318-0.463,0.617-0.835,0.907c-0.375,0.284-0.84,0.526-1.398,0.714
				c-0.559,0.19-1.205,0.286-1.932,0.286c-1.67,0-2.964-0.474-3.887-1.422c-0.924-0.952-1.391-2.243-1.391-3.868
				c0-0.768,0.116-1.479,0.347-2.135c0.225-0.658,0.558-1.217,0.999-1.688c0.435-0.471,0.971-0.828,1.612-1.078
				c0.638-0.25,1.347-0.375,2.128-0.375c1.011,0,1.881,0.215,2.607,0.647c0.725,0.423,1.274,0.977,1.629,1.654
				c0.362,0.681,0.542,1.368,0.542,2.074c0,0.648-0.188,1.07-0.562,1.266C435.847,771.035,435.322,771.132,434.645,771.132
				 M429.57,769.657h4.702c-0.063-0.885-0.299-1.55-0.715-1.986c-0.418-0.442-0.959-0.661-1.64-0.661
				c-0.646,0-1.178,0.221-1.592,0.67C429.911,768.125,429.657,768.783,429.57,769.657"/>
			<path id="XMLID_72_" style="fill:#4B4B4B;" d="M445.432,771.132h-5.072c0.005,0.588,0.125,1.11,0.354,1.559
				c0.231,0.446,0.539,0.786,0.922,1.017c0.383,0.227,0.805,0.34,1.271,0.34c0.308,0,0.593-0.033,0.845-0.111
				c0.26-0.069,0.506-0.185,0.75-0.341c0.242-0.153,0.46-0.319,0.664-0.5c0.199-0.175,0.464-0.416,0.788-0.72
				c0.136-0.112,0.326-0.174,0.569-0.174c0.268,0,0.482,0.074,0.65,0.223c0.164,0.146,0.239,0.351,0.239,0.617
				c0,0.234-0.087,0.508-0.272,0.818c-0.178,0.318-0.456,0.617-0.831,0.907c-0.369,0.284-0.84,0.526-1.396,0.714
				c-0.557,0.19-1.207,0.286-1.934,0.286c-1.668,0-2.96-0.474-3.888-1.422c-0.923-0.952-1.389-2.243-1.389-3.868
				c0-0.768,0.116-1.479,0.349-2.135c0.226-0.658,0.559-1.217,0.996-1.688c0.435-0.471,0.972-0.828,1.613-1.078
				c0.638-0.25,1.35-0.375,2.129-0.375c1.009,0,1.879,0.215,2.613,0.647c0.72,0.423,1.266,0.977,1.621,1.654
				c0.359,0.681,0.545,1.368,0.545,2.074c0,0.648-0.191,1.07-0.562,1.266C446.632,771.035,446.107,771.132,445.432,771.132
				 M440.359,769.657h4.7c-0.064-0.885-0.304-1.55-0.715-1.986c-0.421-0.442-0.962-0.661-1.643-0.661
				c-0.646,0-1.176,0.221-1.593,0.67C440.697,768.125,440.443,768.783,440.359,769.657"/>
			<path id="XMLID_69_" style="fill:#4B4B4B;" d="M451.111,766.68v0.31c0.486-0.602,0.994-1.043,1.524-1.324
				c0.519-0.284,1.118-0.428,1.782-0.428c0.795,0,1.535,0.209,2.207,0.618c0.672,0.414,1.198,1.015,1.589,1.806
				c0.391,0.796,0.587,1.73,0.587,2.815c0,0.796-0.112,1.531-0.337,2.201c-0.224,0.668-0.537,1.227-0.929,1.68
				c-0.393,0.45-0.855,0.801-1.389,1.046c-0.542,0.241-1.112,0.363-1.728,0.363c-0.738,0-1.363-0.149-1.865-0.447
				c-0.502-0.292-0.982-0.733-1.441-1.306v3.893c0,1.135-0.416,1.71-1.244,1.71c-0.49,0-0.809-0.146-0.971-0.44
				c-0.152-0.298-0.234-0.723-0.234-1.291v-11.193c0-0.494,0.107-0.858,0.32-1.107c0.215-0.238,0.512-0.363,0.885-0.363
				c0.369,0,0.666,0.125,0.897,0.374C450.998,765.849,451.111,766.205,451.111,766.68 M456.195,770.447
				c0-0.685-0.106-1.273-0.314-1.764c-0.209-0.492-0.499-0.867-0.866-1.127c-0.367-0.264-0.782-0.396-1.232-0.396
				c-0.714,0-1.318,0.284-1.809,0.844c-0.492,0.566-0.739,1.396-0.739,2.492c0,1.027,0.245,1.834,0.735,2.407
				c0.487,0.573,1.086,0.858,1.813,0.858c0.429,0,0.831-0.127,1.198-0.373c0.371-0.252,0.664-0.626,0.883-1.126
				C456.085,771.76,456.195,771.154,456.195,770.447"/>
			<path id="XMLID_66_" style="fill:#4B4B4B;" d="M461.411,764.014c-0.362,0-0.669-0.114-0.923-0.335
				c-0.259-0.224-0.387-0.532-0.387-0.937c0-0.368,0.13-0.67,0.396-0.91c0.263-0.234,0.566-0.355,0.914-0.355
				c0.34,0,0.636,0.106,0.894,0.319c0.26,0.218,0.391,0.534,0.391,0.946c0,0.399-0.127,0.711-0.377,0.935
				C462.063,763.899,461.764,764.014,461.411,764.014 M462.695,766.691v7.503c0,0.515-0.123,0.907-0.369,1.172
				c-0.25,0.269-0.562,0.4-0.941,0.4c-0.382,0-0.686-0.134-0.929-0.407c-0.233-0.275-0.354-0.664-0.354-1.165v-7.428
				c0-0.51,0.121-0.896,0.354-1.154c0.243-0.265,0.547-0.392,0.929-0.392c0.38,0,0.691,0.127,0.941,0.392
				C462.572,765.871,462.695,766.234,462.695,766.691"/>
			<path id="XMLID_65_" style="fill:#4B4B4B;" d="M471.055,774.583l-2.283-3.767l-1.408,1.329v2.065
				c0,0.498-0.133,0.881-0.397,1.148c-0.256,0.273-0.565,0.407-0.906,0.407c-0.398,0-0.715-0.132-0.941-0.4
				c-0.227-0.265-0.344-0.657-0.344-1.175v-11.063c0-0.574,0.114-1.012,0.331-1.313c0.224-0.306,0.545-0.452,0.953-0.452
				c0.4,0,0.713,0.137,0.95,0.411c0.233,0.271,0.353,0.673,0.353,1.202v6.293l2.915-3.063c0.362-0.377,0.633-0.641,0.827-0.778
				c0.189-0.14,0.42-0.208,0.689-0.208c0.326,0,0.594,0.104,0.815,0.309c0.212,0.205,0.32,0.466,0.32,0.773
				c0,0.379-0.354,0.889-1.055,1.522l-1.377,1.263l2.659,4.183c0.193,0.314,0.339,0.544,0.424,0.705
				c0.084,0.16,0.131,0.32,0.131,0.463c0,0.412-0.115,0.734-0.342,0.975c-0.224,0.237-0.523,0.354-0.886,0.354
				c-0.316,0-0.564-0.081-0.733-0.257C471.582,775.338,471.345,775.027,471.055,774.583"/>
			<path id="XMLID_64_" style="fill:#4B4B4B;" d="M476.69,775.767c-0.392,0-0.728-0.126-1.014-0.382
				c-0.284-0.248-0.429-0.606-0.429-1.065c0-0.385,0.138-0.719,0.41-0.994c0.274-0.279,0.607-0.419,1.008-0.419
				c0.397,0,0.735,0.14,1.022,0.412c0.279,0.275,0.422,0.612,0.422,1.001c0,0.453-0.143,0.809-0.422,1.061
				C477.401,775.641,477.069,775.767,476.69,775.767"/>
			<path id="XMLID_63_" style="fill:#4B4B4B;" d="M489.589,772.557c0,0.32-0.097,0.668-0.291,1.034
				c-0.191,0.37-0.488,0.718-0.886,1.05c-0.395,0.332-0.891,0.602-1.494,0.804c-0.602,0.202-1.281,0.306-2.031,0.306
				c-1.606,0-2.858-0.469-3.758-1.4c-0.895-0.935-1.346-2.189-1.346-3.76c0-1.067,0.205-2.006,0.619-2.824
				c0.407-0.814,1.004-1.447,1.781-1.895c0.779-0.447,1.717-0.67,2.795-0.67c0.673,0,1.287,0.099,1.852,0.295
				c0.561,0.195,1.033,0.451,1.426,0.76c0.387,0.314,0.685,0.643,0.889,0.992c0.207,0.352,0.308,0.681,0.308,0.986
				c0,0.309-0.113,0.572-0.343,0.788c-0.235,0.215-0.516,0.323-0.838,0.323c-0.22,0-0.398-0.057-0.541-0.166
				c-0.145-0.111-0.305-0.289-0.479-0.541c-0.317-0.478-0.646-0.842-0.995-1.08c-0.344-0.242-0.781-0.361-1.315-0.361
				c-0.762,0-1.384,0.298-1.853,0.897c-0.468,0.596-0.703,1.419-0.703,2.454c0,0.488,0.063,0.939,0.184,1.348
				c0.116,0.407,0.291,0.756,0.52,1.044c0.23,0.286,0.504,0.505,0.826,0.654c0.324,0.153,0.681,0.226,1.064,0.226
				c0.521,0,0.966-0.12,1.336-0.361c0.376-0.24,0.703-0.607,0.986-1.102c0.158-0.291,0.327-0.518,0.509-0.684
				c0.183-0.164,0.409-0.249,0.676-0.249c0.316,0,0.58,0.122,0.787,0.362C489.482,772.027,489.589,772.286,489.589,772.557"/>
			<path id="XMLID_60_" style="fill:#4B4B4B;" d="M500.779,770.496c0,0.77-0.122,1.484-0.355,2.139
				c-0.247,0.652-0.592,1.213-1.05,1.679c-0.455,0.469-1.002,0.828-1.632,1.079c-0.639,0.248-1.35,0.375-2.138,0.375
				c-0.786,0-1.494-0.127-2.122-0.383c-0.623-0.248-1.17-0.613-1.626-1.081c-0.46-0.478-0.809-1.034-1.052-1.677
				c-0.228-0.644-0.35-1.354-0.35-2.131c0-0.787,0.123-1.506,0.358-2.158c0.241-0.654,0.588-1.213,1.038-1.674
				c0.451-0.461,0.993-0.816,1.631-1.069c0.644-0.249,1.35-0.374,2.122-0.374c0.784,0,1.497,0.125,2.138,0.381
				c0.639,0.252,1.184,0.615,1.643,1.08c0.458,0.475,0.803,1.029,1.04,1.672C500.659,769.004,500.779,769.713,500.779,770.496
				 M498.176,770.496c0-1.059-0.234-1.881-0.697-2.469c-0.464-0.596-1.09-0.889-1.874-0.889c-0.509,0-0.956,0.133-1.344,0.395
				c-0.387,0.262-0.681,0.649-0.89,1.164c-0.209,0.514-0.315,1.113-0.315,1.799c0,0.679,0.102,1.268,0.309,1.773
				c0.208,0.51,0.502,0.897,0.886,1.166c0.386,0.266,0.835,0.404,1.353,0.404c0.784,0,1.41-0.297,1.874-0.892
				C497.941,772.357,498.176,771.537,498.176,770.496"/>
			<path id="XMLID_59_" style="fill:#4B4B4B;" d="M510.672,770.687v3.446c0,0.547-0.121,0.951-0.37,1.227
				c-0.25,0.273-0.571,0.408-0.978,0.408c-0.393,0-0.714-0.135-0.951-0.408c-0.247-0.275-0.372-0.68-0.372-1.227v-4.131
				c0-0.653-0.021-1.162-0.063-1.525c-0.046-0.353-0.169-0.654-0.362-0.882c-0.197-0.235-0.51-0.353-0.932-0.353
				c-0.851,0-1.406,0.291-1.677,0.882c-0.267,0.576-0.405,1.413-0.405,2.507v3.502c0,0.538-0.123,0.946-0.361,1.224
				c-0.25,0.273-0.568,0.411-0.966,0.411c-0.396,0-0.717-0.139-0.967-0.411c-0.251-0.277-0.376-0.685-0.376-1.224v-7.42
				c0-0.488,0.111-0.859,0.336-1.111c0.229-0.256,0.525-0.381,0.889-0.381c0.356,0,0.651,0.123,0.893,0.355
				c0.235,0.238,0.353,0.566,0.353,0.984v0.244c0.453-0.534,0.935-0.931,1.444-1.18c0.517-0.26,1.082-0.387,1.714-0.387
				c0.65,0,1.21,0.132,1.677,0.391c0.47,0.26,0.854,0.654,1.161,1.176c0.439-0.527,0.908-0.922,1.409-1.18
				c0.501-0.258,1.054-0.387,1.662-0.387c0.706,0,1.321,0.143,1.834,0.42c0.511,0.278,0.894,0.68,1.148,1.195
				c0.221,0.473,0.33,1.21,0.33,2.217v5.063c0,0.547-0.121,0.951-0.367,1.227c-0.246,0.273-0.574,0.408-0.979,0.408
				c-0.396,0-0.715-0.139-0.966-0.411c-0.25-0.277-0.376-0.685-0.376-1.224v-4.361c0-0.559-0.023-1.004-0.069-1.338
				c-0.047-0.338-0.177-0.62-0.382-0.847c-0.213-0.228-0.531-0.345-0.953-0.345c-0.342,0-0.666,0.107-0.975,0.309
				c-0.307,0.198-0.547,0.477-0.721,0.813C510.77,768.801,510.672,769.576,510.672,770.687"/>
		</g>
		<g id="XMLID_26_">
			<path id="XMLID_57_" style="fill:#4B4B4B;" d="M389.967,769.867c-0.002-0.004-0.002-0.009-0.002-0.018
				C389.965,769.858,389.965,769.863,389.967,769.867z"/>
			<path id="XMLID_56_" style="fill:#4B4B4B;" d="M390.098,770.697c0.002,0,0.002,0,0.003,0c-0.05-0.236-0.088-0.471-0.119-0.702
				C390.012,770.229,390.051,770.463,390.098,770.697z"/>
			<path id="XMLID_37_" style="fill:#4B4B4B;" d="M390.956,773.104c-0.006-0.01-0.011-0.022-0.017-0.033
				C390.945,773.082,390.95,773.094,390.956,773.104z"/>
			<path id="XMLID_36_" style="fill:#4B4B4B;" d="M390.874,772.943c-0.022-0.044-0.044-0.09-0.065-0.135
				C390.83,772.856,390.852,772.899,390.874,772.943z"/>
			<path id="XMLID_35_" style="fill:#4B4B4B;" d="M390.339,771.624c0.127,0.4,0.28,0.788,0.457,1.158
				c-0.18-0.378-0.33-0.767-0.454-1.158C390.341,771.624,390.34,771.624,390.339,771.624z"/>
			<path id="XMLID_34_" style="fill:#4B4B4B;" d="M400.004,759.932c0.501,0,0.871,0.039,1.294,0.111l0.12-0.764
				c0,0-1.17-0.359-2.71-0.233l-0.121-0.415c0.478-0.102,0.838-0.526,0.838-1.035c0-0.582-0.474-1.053-1.057-1.053
				c-0.583,0-1.056,0.471-1.056,1.053c0,0.509,0.358,0.934,0.836,1.035l0.134,0.463c-1.634,0.225-2.935,0.861-2.935,0.861
				l0.23,0.706c0.989-0.329,1.846-0.529,2.624-0.614C398.964,759.967,399.537,759.932,400.004,759.932z"/>
			<path id="XMLID_33_" style="fill:#4B4B4B;" d="M390.936,763.789l0.006-0.007c0.039-0.05,0.076-0.097,0.113-0.144l-0.313-0.225
				l-0.488-0.357c-0.027,0.038-0.795,0.743-1.401,2.048c-0.025-0.041-0.056-0.081-0.09-0.119c-0.182-0.199-0.436-0.3-0.758-0.295
				c-0.004,0-0.009,0-0.015,0c-0.2,0-0.337-0.066-0.427-0.146c0.089-0.113,0.143-0.256,0.143-0.413c0-0.368-0.3-0.669-0.669-0.669
				c-0.369,0-0.669,0.301-0.669,0.669c0,0.37,0.3,0.669,0.669,0.669c0.058,0,0.113-0.01,0.167-0.021
				c0.164,0.184,0.425,0.342,0.808,0.334c0.197-0.001,0.341,0.049,0.438,0.156c0.111,0.121,0.148,0.296,0.16,0.428
				c-0.001,0.002-0.001,0.004-0.003,0.004c-0.435,1.19-0.311,2.67-0.311,2.67l1.057,0.043c0.022-0.539,0.099-1.483,0.372-2.231
				C390.25,764.734,390.91,763.828,390.936,763.789z"/>
			<path id="XMLID_32_" style="fill:#4B4B4B;" d="M409.203,760.815c-0.368,0-0.669,0.298-0.669,0.669
				c0,0.057,0.009,0.111,0.023,0.165c-0.184,0.166-0.343,0.427-0.337,0.81c0.003,0.198-0.048,0.341-0.154,0.438
				c-0.085,0.074-0.191,0.115-0.295,0.141c-0.787-1.104-1.757-1.775-1.757-1.775l-0.759,0.813c0.574,0.521,1.159,1.175,1.728,1.99
				c0.394,0.563,0.799,1.29,1.136,2.015l1.024-0.486c0,0-0.468-1.155-1.126-2.192c0.114-0.04,0.229-0.102,0.331-0.193
				c0.201-0.18,0.299-0.436,0.293-0.758c-0.002-0.207,0.067-0.348,0.148-0.441c0.114,0.088,0.257,0.143,0.412,0.143
				c0.371,0,0.67-0.3,0.67-0.669C409.873,761.113,409.574,760.815,409.203,760.815z"/>
			<path id="XMLID_31_" style="fill:#4B4B4B;" d="M406.547,770.018c-1.41,0.687-3.728,1.594-6.782,2.02
				c-1.198,0.166-2.359,0.227-3.428,0.227c-1.391,0-2.62-0.103-3.563-0.223c-1.076-0.135-1.917-0.301-2.432-0.417
				c0.124,0.392,0.273,0.78,0.454,1.158c0.003,0.009,0.008,0.02,0.013,0.026c0.021,0.045,0.043,0.091,0.065,0.135
				c0.021,0.044,0.043,0.086,0.065,0.127c0.006,0.012,0.011,0.023,0.017,0.033c0.303,0.57,0.667,1.094,1.081,1.549
				c1.44,1.574,2.907,1.824,2.921,1.826l0.023,0.003l0.022,0.007c0.013,0.006,1.314,0.426,3.291,0.426
				c1.945,0,3.854-0.393,5.673-1.168c1.348-0.688,2.622-1.736,3.254-2.67c0.489-0.722,0.842-1.492,1.051-2.293
				c0.11-0.426,0.198-1.107,0.147-1.825C408.022,769.225,407.395,769.604,406.547,770.018z"/>
			<path id="XMLID_27_" style="fill:#4B4B4B;" d="M391.389,764.124c-0.041,0.06-0.652,0.925-1.135,2.253
				c-0.362,0.994-0.346,2.443-0.346,2.46v0.003c0,0.34,0.019,0.677,0.057,1.01c0,0.009,0,0.014,0.002,0.018
				c0.004,0.044,0.011,0.084,0.015,0.128c0.03,0.232,0.069,0.466,0.119,0.702c0.7,0.178,4.878,1.152,9.548,0.502
				c2.927-0.408,5.149-1.273,6.499-1.927c1.121-0.544,1.842-1.036,2.12-1.239c-0.277-1.027-1.041-2.641-1.742-3.646
				c-2.006-2.865-4.168-3.601-5.278-3.783c-0.423-0.069-0.762-0.109-1.243-0.109c-0.447,0-1.002,0.036-1.743,0.114
				c-0.743,0.077-1.572,0.272-2.532,0.596c-1.348,0.451-2.567,1.158-3.527,2.048l-0.033,0.03
				C392.027,763.414,391.73,763.69,391.389,764.124z M403.658,763.457c0.961,0,1.743,0.781,1.743,1.743s-0.782,1.744-1.743,1.744
				c-0.961,0-1.742-0.782-1.742-1.744S402.697,763.457,403.658,763.457z M395.417,763.388c1.557,0,2.817,1.262,2.817,2.817
				c0,1.555-1.26,2.814-2.817,2.814c-1.555,0-2.816-1.26-2.816-2.814C392.601,764.649,393.862,763.388,395.417,763.388z"/>
		</g>
	</g>
</g>
</svg>
